SplineFontDB: 3.0
FontName: PhotoSans-Regular
FullName: Photo Sans
FamilyName: Photo Sans
Weight: Regular
Copyright: Copyright (c) 2019, Collectif Design Ltd. (collectif.co.nz), Wayne Shih (wayne@collectif.co.nz), \nwith Reserved Font Name 'Photo Sans'. \n-- \n'Photo Sans' is a Font Software modified from 'Karla' and 'Karmilla' under the SIL Open Font License. \nKarla v1.000 (c) 2011-2012, Jonathan Pinhor (jonpinhorn.typedesign@gmail.com). \nKarmilla v1.000 (c) 2012, Manuel Schmalstieg (greyscalepress.com) and Raphael Bastide (raphaelbastide.com). \n--\nThis Font Software is licensed under the SIL Open Font License, Version 1.1.
Version: 1.000
ItalicAngle: 0
UnderlinePosition: -100
UnderlineWidth: 50
Ascent: 800
Descent: 200
InvalidEm: 0
sfntRevision: 0x00010000
LayerCount: 2
Layer: 0 1 "Back" 1
Layer: 1 1 "Fore" 0
XUID: [1021 95 -562094785 6866650]
StyleMap: 0x0040
FSType: 8
OS2Version: 0
OS2_WeightWidthSlopeOnly: 0
OS2_UseTypoMetrics: 0
CreationTime: 1307536560
ModificationTime: 1551503091
PfmFamily: 33
TTFWeight: 400
TTFWidth: 5
LineGap: 0
VLineGap: 0
Panose: 0 0 0 0 0 0 0 0 0 0
OS2TypoAscent: 917
OS2TypoAOffset: 0
OS2TypoDescent: -252
OS2TypoDOffset: 0
OS2TypoLinegap: 0
OS2WinAscent: 917
OS2WinAOffset: 0
OS2WinDescent: 252
OS2WinDOffset: 0
HheadAscent: 917
HheadAOffset: 0
HheadDescent: -252
HheadDOffset: 0
OS2SubXSize: 700
OS2SubYSize: 650
OS2SubXOff: 0
OS2SubYOff: 140
OS2SupXSize: 700
OS2SupYSize: 650
OS2SupXOff: 0
OS2SupYOff: 477
OS2StrikeYSize: 50
OS2StrikeYPos: 250
OS2CapHeight: 629
OS2XHeight: 478
OS2Vendor: 'pyrs'
OS2CodePages: 00000001.00000000
OS2UnicodeRanges: 80000027.08000042.14000000.00000000
Lookup: 1 0 0 "'onum' Oldstyle Figures in Latin lookup 0" { "'onum' Oldstyle Figures in Latin lookup 0 subtable" ("oldstyle") } ['onum' ('latn' <'dflt' > ) ]
Lookup: 258 0 0 "'kern' Horizontal Kerning in Latin lookup 0" { "'kern' Horizontal Kerning in Latin lookup 0 subtable"  } ['kern' ('latn' <'dflt' > ) ]
MarkAttachClasses: 1
DEI: 91125
TtTable: prep
PUSHW_1

StartChar: exclam
Encoding: 33 33 4
Width: 278
GlyphClass: 2
Flags: W
LayerCount: 2
Fore
SplineSet
99 627 m 1,0,-1
 182 627 l 1,1,-1
 173 176 l 1,2,-1
 109 176 l 1,3,-1
 99 627 l 1,0,-1
98.5 7.5 m 128,-1,5
 82 24 82 24 82 47.5 c 128,-1,6
 82 71 82 71 98.5 87.5 c 128,-1,7
 115 104 115 104 140.5 104 c 128,-1,8
 166 104 166 104 183.5 87.5 c 128,-1,9
 201 71 201 71 201 47.5 c 128,-1,10
 201 24 201 24 183.5 7.5 c 128,-1,11
 166 -9 166 -9 140.5 -9 c 128,-1,4
 115 -9 115 -9 98.5 7.5 c 128,-1,5
EndSplineSet
Validated: 1
EndChar

StartChar: quotedbl
Encoding: 34 34 5
Width: 306
GlyphClass: 2
Flags: W
LayerCount: 2
Fore
SplineSet
110 681 m 1,0,-1
 99 461 l 1,1,-1
 39 461 l 1,2,-1
 28 681 l 1,3,-1
 110 681 l 1,0,-1
278 681 m 1,4,-1
 267 461 l 1,5,-1
 207 461 l 1,6,-1
 196 681 l 1,7,-1
 278 681 l 1,4,-1
EndSplineSet
Validated: 1
EndChar

StartChar: numbersign
Encoding: 35 35 6
Width: 627
GlyphClass: 2
Flags: W
LayerCount: 2
Fore
SplineSet
380 170 m 1,0,-1
 226 170 l 1,1,-1
 212 31 l 1,2,-1
 138 31 l 1,3,-1
 152 170 l 1,4,-1
 53 170 l 1,5,-1
 58 224 l 1,6,-1
 158 224 l 1,7,-1
 177 402 l 1,8,-1
 76 402 l 1,9,-1
 82 455 l 1,10,-1
 182 455 l 1,11,-1
 197 593 l 1,12,-1
 271 593 l 1,13,-1
 256 455 l 1,14,-1
 410 455 l 1,15,-1
 425 593 l 1,16,-1
 498 593 l 1,17,-1
 483 455 l 1,18,-1
 586 455 l 1,19,-1
 580 402 l 1,20,-1
 478 402 l 1,21,-1
 459 224 l 1,22,-1
 562 224 l 1,23,-1
 556 170 l 1,24,-1
 453 170 l 1,25,-1
 439 31 l 1,26,-1
 365 31 l 1,27,-1
 380 170 l 1,0,-1
232 224 m 1,28,-1
 385 224 l 1,29,-1
 404 402 l 1,30,-1
 251 402 l 1,31,-1
 232 224 l 1,28,-1
EndSplineSet
Validated: 1
EndChar

StartChar: dollar
Encoding: 36 36 7
Width: 632
GlyphClass: 2
Flags: W
LayerCount: 2
Fore
SplineSet
417 330 m 2,0,1
 486 307 486 307 524.5 268.5 c 128,-1,2
 563 230 563 230 563 163.5 c 128,-1,3
 563 97 563 97 506 46.5 c 128,-1,4
 449 -4 449 -4 347 -10 c 1,5,-1
 347 -91 l 1,6,-1
 285 -91 l 1,7,-1
 285 -9 l 1,8,9
 190 -1 190 -1 129.5 50.5 c 128,-1,10
 69 102 69 102 69 189 c 1,11,-1
 146 189 l 1,12,13
 146 76 146 76 285 63 c 1,14,-1
 285 298 l 1,15,-1
 253 310 l 1,16,17
 170 336 170 336 127.5 372 c 128,-1,18
 85 408 85 408 85 475 c 128,-1,19
 85 542 85 542 135.5 586.5 c 128,-1,20
 186 631 186 631 285 638 c 1,21,-1
 285 713 l 1,22,-1
 347 713 l 1,23,-1
 347 637 l 1,24,25
 434 630 434 630 481 587 c 128,-1,26
 528 544 528 544 539 476 c 1,27,-1
 461 476 l 1,28,29
 444 556 444 556 347 568 c 1,30,-1
 347 353 l 1,31,-1
 417 330 l 2,0,1
475 167 m 0,32,33
 475 241 475 241 383 270 c 2,34,-1
 347 282 l 1,35,-1
 347 62 l 1,36,37
 410 67 410 67 442.5 98 c 128,-1,38
 475 129 475 129 475 167 c 0,32,33
199 536 m 128,-1,40
 170 509 170 509 170 472.5 c 128,-1,41
 170 436 170 436 190 415.5 c 128,-1,42
 210 395 210 395 255 381 c 2,43,-1
 285 370 l 1,44,-1
 285 569 l 1,45,39
 228 563 228 563 199 536 c 128,-1,40
EndSplineSet
Validated: 1
EndChar

StartChar: percent
Encoding: 37 37 8
Width: 726
GlyphClass: 2
Flags: W
LayerCount: 2
Fore
SplineSet
279 602 m 128,-1,1
 317 564 317 564 317 496 c 256,2,3
 317 428 317 428 279.5 390.5 c 128,-1,4
 242 353 242 353 188 353 c 128,-1,5
 134 353 134 353 97.5 391 c 128,-1,6
 61 429 61 429 61 496 c 256,7,8
 61 563 61 563 98 601.5 c 128,-1,9
 135 640 135 640 188 640 c 128,-1,0
 241 640 241 640 279 602 c 128,-1,1
235 565 m 128,-1,11
 217 587 217 587 188 587 c 128,-1,12
 159 587 159 587 141 565 c 128,-1,13
 123 543 123 543 123 496 c 256,14,15
 123 449 123 449 141 428 c 128,-1,16
 159 407 159 407 188 407 c 128,-1,17
 217 407 217 407 235 428 c 128,-1,18
 253 449 253 449 253 496 c 256,19,10
 253 543 253 543 235 565 c 128,-1,11
534 629 m 1,20,-1
 616 629 l 1,21,-1
 193 0 l 1,22,-1
 112 0 l 1,23,-1
 534 629 l 1,20,-1
538 276 m 256,24,25
 592 276 592 276 629.5 238.5 c 128,-1,26
 667 201 667 201 667 132.5 c 128,-1,27
 667 64 667 64 629.5 26.5 c 128,-1,28
 592 -11 592 -11 538 -11 c 256,29,30
 484 -11 484 -11 447.5 27 c 128,-1,31
 411 65 411 65 411 132.5 c 128,-1,32
 411 200 411 200 447.5 238 c 128,-1,33
 484 276 484 276 538 276 c 256,24,25
538 223 m 256,34,35
 509 223 509 223 491 201 c 128,-1,36
 473 179 473 179 473 132 c 256,37,38
 473 85 473 85 491 64 c 128,-1,39
 509 43 509 43 538 43 c 256,40,41
 567 43 567 43 585 64 c 128,-1,42
 603 85 603 85 603 132 c 256,43,44
 603 179 603 179 585 201 c 128,-1,45
 567 223 567 223 538 223 c 256,34,35
EndSplineSet
Validated: 1
EndChar

StartChar: ampersand
Encoding: 38 38 9
Width: 916
GlyphClass: 2
Flags: W
LayerCount: 2
Fore
SplineSet
725 350 m 1,0,1
 680 213 680 213 610 128 c 1,2,-1
 653 91 l 2,3,4
 673 74 673 74 688.5 66 c 128,-1,5
 704 58 704 58 728.5 58 c 128,-1,6
 753 58 753 58 772.5 76.5 c 128,-1,7
 792 95 792 95 795 140 c 1,8,-1
 869 140 l 1,9,10
 865 68 865 68 831.5 28.5 c 128,-1,11
 798 -11 798 -11 734 -11 c 0,12,13
 695 -11 695 -11 662 5 c 128,-1,14
 629 21 629 21 590 56 c 2,15,-1
 564 78 l 1,16,17
 464 -11 464 -11 336 -11 c 0,18,19
 231 -11 231 -11 160 41.5 c 128,-1,20
 89 94 89 94 89 168 c 128,-1,21
 89 242 89 242 136.5 279.5 c 128,-1,22
 184 317 184 317 276 332 c 1,23,-1
 262 345 l 2,24,25
 185 412 185 412 185 492 c 0,26,27
 185 555 185 555 237.5 597 c 128,-1,28
 290 639 290 639 376.5 639 c 128,-1,29
 463 639 463 639 514.5 597 c 128,-1,30
 566 555 566 555 566 495.5 c 128,-1,31
 566 436 566 436 527 393 c 128,-1,32
 488 350 488 350 400 312 c 1,33,-1
 558 173 l 1,34,35
 626 255 626 255 670 380 c 1,36,-1
 725 350 l 1,0,1
211.5 251 m 128,-1,38
 175 224 175 224 175 176 c 128,-1,39
 175 128 175 128 216.5 93.5 c 128,-1,40
 258 59 258 59 344 59 c 128,-1,41
 430 59 430 59 511 125 c 1,42,-1
 325 288 l 1,43,37
 248 278 248 278 211.5 251 c 128,-1,38
480 488 m 0,44,45
 480 524 480 524 452.5 548 c 128,-1,46
 425 572 425 572 375.5 572 c 128,-1,47
 326 572 326 572 298.5 544.5 c 128,-1,48
 271 517 271 517 271 485 c 128,-1,49
 271 453 271 453 284 428 c 128,-1,50
 297 403 297 403 327 377 c 2,51,-1
 354 352 l 1,52,53
 458 400 458 400 474 452 c 0,54,55
 480 469 480 469 480 488 c 0,44,45
EndSplineSet
Validated: 1
EndChar

StartChar: quotesingle
Encoding: 39 39 10
Width: 136
GlyphClass: 2
Flags: W
LayerCount: 2
Fore
SplineSet
109 677 m 1,0,-1
 98 457 l 1,1,-1
 38 457 l 1,2,-1
 27 677 l 1,3,-1
 109 677 l 1,0,-1
EndSplineSet
Validated: 1
EndChar

StartChar: parenleft
Encoding: 40 40 11
Width: 356
GlyphClass: 2
Flags: W
LayerCount: 2
Fore
SplineSet
155 307 m 128,-1,1
 155 102 155 102 328 -73 c 1,2,-1
 271 -113 l 1,3,4
 173 -24 173 -24 123 84 c 128,-1,5
 73 192 73 192 73 307.5 c 128,-1,6
 73 423 73 423 123 530.5 c 128,-1,7
 173 638 173 638 271 728 c 1,8,-1
 328 687 l 1,9,0
 155 512 155 512 155 307 c 128,-1,1
EndSplineSet
Validated: 1
EndChar

StartChar: parenright
Encoding: 41 41 12
Width: 356
GlyphClass: 2
Flags: W
LayerCount: 2
Fore
SplineSet
201 307 m 128,-1,1
 201 512 201 512 28 687 c 1,2,-1
 85 728 l 1,3,4
 183 638 183 638 233 530.5 c 128,-1,5
 283 423 283 423 283 307.5 c 128,-1,6
 283 192 283 192 233 84 c 128,-1,7
 183 -24 183 -24 85 -113 c 1,8,-1
 28 -73 l 1,9,0
 201 102 201 102 201 307 c 128,-1,1
EndSplineSet
Validated: 1
EndChar

StartChar: asterisk
Encoding: 42 42 13
Width: 412
GlyphClass: 2
Flags: W
LayerCount: 2
Fore
SplineSet
173 516 m 1,0,-1
 56 556 l 1,1,-1
 80 610 l 1,2,-1
 186 556 l 1,3,-1
 176 684 l 1,4,-1
 238 684 l 1,5,-1
 228 556 l 1,6,-1
 334 610 l 1,7,-1
 358 556 l 1,8,-1
 242 516 l 1,9,-1
 332 427 l 1,10,-1
 288 388 l 1,11,-1
 208 492 l 1,12,-1
 128 388 l 1,13,-1
 83 427 l 1,14,-1
 173 516 l 1,0,-1
EndSplineSet
Validated: 1
EndChar

StartChar: plus
Encoding: 43 43 14
Width: 527
GlyphClass: 2
Flags: W
LayerCount: 2
Fore
SplineSet
303 491 m 1,0,-1
 303 279 l 1,1,-1
 509 279 l 1,2,-1
 509 212 l 1,3,-1
 303 212 l 1,4,-1
 303 0 l 1,5,-1
 224 0 l 1,6,-1
 224 212 l 1,7,-1
 18 212 l 1,8,-1
 18 279 l 1,9,-1
 224 279 l 1,10,-1
 224 491 l 1,11,-1
 303 491 l 1,0,-1
EndSplineSet
Validated: 1
EndChar

StartChar: comma
Encoding: 44 44 15
Width: 210
GlyphClass: 2
Flags: W
LayerCount: 2
Fore
SplineSet
67 10 m 128,-1,1
 52 23 52 23 52 45 c 128,-1,2
 52 67 52 67 67.5 82 c 128,-1,3
 83 97 83 97 111.5 97 c 128,-1,4
 140 97 140 97 159 74.5 c 128,-1,5
 178 52 178 52 178 18 c 128,-1,6
 178 -16 178 -16 156 -51.5 c 128,-1,7
 134 -87 134 -87 89 -109 c 1,8,-1
 30 -80 l 1,9,10
 92 -50 92 -50 105 -5 c 1,11,0
 82 -3 82 -3 67 10 c 128,-1,1
EndSplineSet
Validated: 1
EndChar

StartChar: hyphen
Encoding: 45 45 16
Width: 349
GlyphClass: 2
Flags: W
LayerCount: 2
Fore
SplineSet
38 325 m 5,0,-1
 310 325 l 5,1,-1
 310 257 l 5,2,-1
 38 257 l 5,3,-1
 38 325 l 5,0,-1
EndSplineSet
Validated: 1
EndChar

StartChar: period
Encoding: 46 46 17
Width: 179
GlyphClass: 2
Flags: W
LayerCount: 2
Fore
SplineSet
46.5 7.5 m 128,-1,1
 30 24 30 24 30 47.5 c 128,-1,2
 30 71 30 71 46.5 87.5 c 128,-1,3
 63 104 63 104 88.5 104 c 128,-1,4
 114 104 114 104 131 87.5 c 128,-1,5
 148 71 148 71 148 47.5 c 128,-1,6
 148 24 148 24 131 7.5 c 128,-1,7
 114 -9 114 -9 88.5 -9 c 128,-1,0
 63 -9 63 -9 46.5 7.5 c 128,-1,1
EndSplineSet
Validated: 1
EndChar

StartChar: slash
Encoding: 47 47 18
Width: 432
GlyphClass: 2
Flags: W
LayerCount: 2
Fore
SplineSet
308 731 m 1,0,-1
 388 731 l 1,1,-1
 136 -73 l 1,2,-1
 57 -73 l 1,3,-1
 308 731 l 1,0,-1
EndSplineSet
Validated: 1
EndChar

StartChar: zero
Encoding: 48 48 19
Width: 575
GlyphClass: 2
Flags: W
LayerCount: 2
Fore
SplineSet
459.012695312 556 m 128,-1,1
 525.012695312 472 525.012695312 472 525.012695312 314.5 c 128,-1,2
 525.012695312 157 525.012695312 157 459.012695312 73 c 128,-1,3
 393.012695312 -11 393.012695312 -11 279.012695312 -11 c 128,-1,4
 165.012695312 -11 165.012695312 -11 98.5126953125 72 c 128,-1,5
 32.0126953125 155 32.0126953125 155 32.0126953125 314.5 c 128,-1,6
 32.0126953125 474 32.0126953125 474 98.5126953125 557 c 128,-1,7
 165.012695312 640 165.012695312 640 279.012695312 640 c 128,-1,0
 393.012695312 640 393.012695312 640 459.012695312 556 c 128,-1,1
401.012695312 502.5 m 128,-1,9
 359.012695312 568 359.012695312 568 278.512695312 568 c 128,-1,10
 198.012695312 568 198.012695312 568 156.012695312 502.5 c 128,-1,11
 114.012695312 437 114.012695312 437 114.012695312 314.5 c 128,-1,12
 114.012695312 192 114.012695312 192 156.012695312 126.5 c 128,-1,13
 198.012695312 61 198.012695312 61 278.512695312 61 c 128,-1,14
 359.012695312 61 359.012695312 61 401.012695312 126.5 c 128,-1,15
 443.012695312 192 443.012695312 192 443.012695312 314.5 c 128,-1,8
 443.012695312 437 443.012695312 437 401.012695312 502.5 c 128,-1,9
EndSplineSet
Validated: 1
Substitution2: "'onum' Oldstyle Figures in Latin lookup 0 subtable" .notdef
EndChar

StartChar: one
Encoding: 49 49 20
Width: 292
GlyphClass: 2
Flags: W
LayerCount: 2
Fore
SplineSet
11.025390625 580 m 1,0,1
 78.025390625 589 78.025390625 589 128.025390625 631 c 1,2,-1
 192.025390625 631 l 1,3,-1
 192.025390625 0 l 1,4,-1
 114.025390625 0 l 1,5,-1
 114.025390625 537 l 1,6,7
 64.025390625 505 64.025390625 505 11.025390625 502 c 1,8,-1
 11.025390625 580 l 1,0,1
EndSplineSet
Validated: 1
Substitution2: "'onum' Oldstyle Figures in Latin lookup 0 subtable" .notdef
EndChar

StartChar: two
Encoding: 50 50 21
Width: 580
GlyphClass: 2
Flags: W
LayerCount: 2
Fore
SplineSet
143 73 m 1,0,-1
 508 73 l 1,1,-1
 508 0 l 1,2,-1
 64 0 l 1,3,-1
 64 93 l 2,4,5
 64 204 64 204 148 256 c 0,6,7
 175 273 175 273 208 286 c 2,8,-1
 332 336 l 2,9,10
 428 374 428 374 428 461 c 0,11,12
 428 509 428 509 395 539.5 c 128,-1,13
 362 570 362 570 302.5 570 c 128,-1,14
 243 570 243 570 205.5 545 c 128,-1,15
 168 520 168 520 162 470 c 1,16,-1
 75 470 l 1,17,18
 80 552 80 552 141 596 c 128,-1,19
 202 640 202 640 297.5 640 c 128,-1,20
 393 640 393 640 453 588 c 128,-1,21
 513 536 513 536 513 459.5 c 128,-1,22
 513 383 513 383 473.5 338 c 128,-1,23
 434 293 434 293 365 266 c 2,24,-1
 238 215 l 2,25,26
 190 195 190 195 166.5 169.5 c 128,-1,27
 143 144 143 144 143 103 c 2,28,-1
 143 73 l 1,0,-1
EndSplineSet
Validated: 1
Substitution2: "'onum' Oldstyle Figures in Latin lookup 0 subtable" .notdef
EndChar

StartChar: three
Encoding: 51 51 22
Width: 591
GlyphClass: 2
Flags: W
LayerCount: 2
Fore
SplineSet
505 468 m 0,0,1
 505 368 505 368 395 329 c 1,2,3
 455 312 455 312 492 273 c 128,-1,4
 529 234 529 234 529 173 c 0,5,6
 529 90 529 90 466 39.5 c 128,-1,7
 403 -11 403 -11 300 -11 c 128,-1,8
 197 -11 197 -11 124.5 42.5 c 128,-1,9
 52 96 52 96 52 193 c 1,10,-1
 134 193 l 1,11,12
 136 129 136 129 181.5 95 c 128,-1,13
 227 61 227 61 297 61 c 128,-1,14
 367 61 367 61 405.5 94.5 c 128,-1,15
 444 128 444 128 444 177.5 c 128,-1,16
 444 227 444 227 407 258.5 c 128,-1,17
 370 290 370 290 287 290 c 2,18,-1
 215 290 l 1,19,-1
 215 353 l 1,20,-1
 264 353 l 2,21,22
 336 353 336 353 378 381.5 c 128,-1,23
 420 410 420 410 420 458 c 128,-1,24
 420 506 420 506 386 537 c 128,-1,25
 352 568 352 568 296 568 c 128,-1,26
 240 568 240 568 202.5 548.5 c 128,-1,27
 165 529 165 529 152 476 c 1,28,-1
 70 476 l 1,29,30
 81 559 81 559 139 599.5 c 128,-1,31
 197 640 197 640 288.5 640 c 128,-1,32
 380 640 380 640 442.5 591.5 c 128,-1,33
 505 543 505 543 505 468 c 0,0,1
EndSplineSet
Validated: 1
Substitution2: "'onum' Oldstyle Figures in Latin lookup 0 subtable" .notdef
EndChar

StartChar: four
Encoding: 52 52 23
Width: 533
GlyphClass: 2
Flags: W
LayerCount: 2
Fore
SplineSet
402.68359375 638 m 1,0,-1
 402.68359375 220 l 1,1,-1
 511.68359375 220 l 1,2,-1
 511.68359375 152 l 1,3,-1
 402.68359375 152 l 1,4,-1
 402.68359375 0 l 1,5,-1
 325.68359375 0 l 1,6,-1
 325.68359375 152 l 1,7,-1
 0.68359375 152 l 1,8,-1
 0.68359375 213 l 1,9,-1
 329.68359375 638 l 1,10,-1
 402.68359375 638 l 1,0,-1
94.68359375 213 m 1,11,-1
 327.68359375 213 l 1,12,-1
 327.68359375 513 l 1,13,-1
 94.68359375 213 l 1,11,-1
EndSplineSet
Validated: 1
Substitution2: "'onum' Oldstyle Figures in Latin lookup 0 subtable" .notdef
EndChar

StartChar: five
Encoding: 53 53 24
Width: 546
GlyphClass: 2
Flags: W
LayerCount: 2
Fore
SplineSet
408.012695312 204 m 0,0,1
 408.012695312 323 408.012695312 323 253.012695312 323 c 2,2,-1
 84.0126953125 323 l 1,3,-1
 111.012695312 629 l 1,4,-1
 460.012695312 629 l 1,5,-1
 460.012695312 557 l 1,6,-1
 187.012695312 557 l 1,7,-1
 170.012695312 376 l 1,8,9
 222.012695312 385 222.012695312 385 269.012695312 385 c 0,10,11
 372.012695312 385 372.012695312 385 431.012695312 339.5 c 128,-1,12
 490.012695312 294 490.012695312 294 490.012695312 202 c 128,-1,13
 490.012695312 110 490.012695312 110 428.012695312 49.5 c 128,-1,14
 366.012695312 -11 366.012695312 -11 268.012695312 -11 c 128,-1,15
 170.012695312 -11 170.012695312 -11 108.012695312 38.5 c 128,-1,16
 46.0126953125 88 46.0126953125 88 46.0126953125 175 c 1,17,-1
 125.012695312 175 l 1,18,19
 125.012695312 93 125.012695312 93 209.012695312 68 c 0,20,21
 235.012695312 61 235.012695312 61 266.012695312 61 c 0,22,23
 330.012695312 61 330.012695312 61 369.012695312 101.5 c 128,-1,24
 408.012695312 142 408.012695312 142 408.012695312 204 c 0,0,1
EndSplineSet
Validated: 1
Substitution2: "'onum' Oldstyle Figures in Latin lookup 0 subtable" .notdef
EndChar

StartChar: six
Encoding: 54 54 25
Width: 554
GlyphClass: 2
Flags: W
LayerCount: 2
Fore
SplineSet
406.012695312 470 m 1,0,1
 389.012695312 568 389.012695312 568 299.012695312 568 c 128,-1,2
 209.012695312 568 209.012695312 568 160.512695312 494 c 128,-1,3
 112.012695312 420 112.012695312 420 112.012695312 292 c 0,4,5
 112.012695312 239 112.012695312 239 117.012695312 204 c 1,6,7
 123.012695312 296 123.012695312 296 173.512695312 337.5 c 128,-1,8
 224.012695312 379 224.012695312 379 303.012695312 379 c 128,-1,9
 382.012695312 379 382.012695312 379 439.012695312 323.5 c 128,-1,10
 496.012695312 268 496.012695312 268 496.012695312 181.5 c 128,-1,11
 496.012695312 95 496.012695312 95 437.012695312 41.5 c 128,-1,12
 378.012695312 -12 378.012695312 -12 282.012695312 -12 c 0,13,14
 170.012695312 -12 170.012695312 -12 101.012695312 78 c 128,-1,15
 32.0126953125 168 32.0126953125 168 32.0126953125 314.5 c 128,-1,16
 32.0126953125 461 32.0126953125 461 102.012695312 550.5 c 128,-1,17
 172.012695312 640 172.012695312 640 293.012695312 640 c 0,18,19
 377.012695312 640 377.012695312 640 430.012695312 593 c 128,-1,20
 483.012695312 546 483.012695312 546 491.012695312 470 c 1,21,-1
 406.012695312 470 l 1,0,1
188.512695312 273.5 m 128,-1,23
 151.012695312 238 151.012695312 238 151.012695312 183 c 128,-1,24
 151.012695312 128 151.012695312 128 188.012695312 94.5 c 128,-1,25
 225.012695312 61 225.012695312 61 282.012695312 61 c 128,-1,26
 339.012695312 61 339.012695312 61 376.512695312 94 c 128,-1,27
 414.012695312 127 414.012695312 127 414.012695312 185 c 256,28,29
 414.012695312 243 414.012695312 243 376.512695312 276 c 128,-1,30
 339.012695312 309 339.012695312 309 282.512695312 309 c 128,-1,22
 226.012695312 309 226.012695312 309 188.512695312 273.5 c 128,-1,23
EndSplineSet
Validated: 1
Substitution2: "'onum' Oldstyle Figures in Latin lookup 0 subtable" .notdef
EndChar

StartChar: seven
Encoding: 55 55 26
Width: 463
GlyphClass: 2
Flags: W
LayerCount: 2
Fore
SplineSet
445.670898438 629 m 1,0,-1
 445.670898438 556 l 1,1,-1
 157.670898438 0 l 1,2,-1
 51.6708984375 0 l 1,3,-1
 353.670898438 553 l 1,4,-1
 17.6708984375 553 l 1,5,-1
 17.6708984375 629 l 1,6,-1
 445.670898438 629 l 1,0,-1
EndSplineSet
Validated: 1
Substitution2: "'onum' Oldstyle Figures in Latin lookup 0 subtable" .notdef
EndChar

StartChar: eight
Encoding: 56 56 27
Width: 602
GlyphClass: 2
Flags: W
LayerCount: 2
Fore
SplineSet
188.341796875 318 m 1,0,1
 63.341796875 375 63.341796875 375 63.341796875 473 c 0,2,3
 63.341796875 548 63.341796875 548 125.341796875 594 c 128,-1,4
 187.341796875 640 187.341796875 640 289.841796875 640 c 128,-1,5
 392.341796875 640 392.341796875 640 458.341796875 591 c 128,-1,6
 524.341796875 542 524.341796875 542 524.341796875 465 c 0,7,8
 524.341796875 413 524.341796875 413 489.841796875 372 c 128,-1,9
 455.341796875 331 455.341796875 331 388.341796875 321 c 1,10,-1
 405.341796875 315 l 2,11,12
 474.341796875 289 474.341796875 289 511.341796875 253.5 c 128,-1,13
 548.341796875 218 548.341796875 218 548.341796875 157 c 0,14,15
 548.341796875 81 548.341796875 81 480.841796875 35 c 128,-1,16
 413.341796875 -11 413.341796875 -11 298.841796875 -11 c 128,-1,17
 184.341796875 -11 184.341796875 -11 113.341796875 40 c 128,-1,18
 42.341796875 91 42.341796875 91 42.341796875 168 c 0,19,20
 42.341796875 230 42.341796875 230 82.841796875 269 c 128,-1,21
 123.341796875 308 123.341796875 308 188.341796875 318 c 1,0,1
263.341796875 289 m 1,22,23
 200.341796875 282 200.341796875 282 162.341796875 249.5 c 128,-1,24
 124.341796875 217 124.341796875 217 124.341796875 169 c 128,-1,25
 124.341796875 121 124.341796875 121 172.341796875 91 c 128,-1,26
 220.341796875 61 220.341796875 61 297.841796875 61 c 128,-1,27
 375.341796875 61 375.341796875 61 420.841796875 87 c 128,-1,28
 466.341796875 113 466.341796875 113 466.341796875 150 c 128,-1,29
 466.341796875 187 466.341796875 187 442.341796875 209.5 c 128,-1,30
 418.341796875 232 418.341796875 232 376.341796875 247 c 2,31,-1
 263.341796875 289 l 1,22,23
146.341796875 463 m 0,32,33
 146.341796875 436 146.341796875 436 168.341796875 416.5 c 128,-1,34
 190.341796875 397 190.341796875 397 231.341796875 381 c 2,35,-1
 304.341796875 353 l 1,36,37
 364.341796875 355 364.341796875 355 403.341796875 384.5 c 128,-1,38
 442.341796875 414 442.341796875 414 442.341796875 461.5 c 128,-1,39
 442.341796875 509 442.341796875 509 401.341796875 538.5 c 128,-1,40
 360.341796875 568 360.341796875 568 295.341796875 568 c 128,-1,41
 230.341796875 568 230.341796875 568 188.341796875 539.5 c 128,-1,42
 146.341796875 511 146.341796875 511 146.341796875 463 c 0,32,33
EndSplineSet
Validated: 1
Substitution2: "'onum' Oldstyle Figures in Latin lookup 0 subtable" .notdef
EndChar

StartChar: nine
Encoding: 57 57 28
Width: 568
GlyphClass: 2
Flags: W
LayerCount: 2
Fore
SplineSet
269.341796875 640 m 0,0,1
 320.341796875 640 320.341796875 640 366.341796875 618 c 128,-1,2
 412.341796875 596 412.341796875 596 445.341796875 555 c 0,3,4
 517.341796875 467 517.341796875 467 517.341796875 326 c 0,5,6
 517.341796875 81 517.341796875 81 381.341796875 12 c 0,7,8
 334.341796875 -11 334.341796875 -11 279.341796875 -11 c 0,9,10
 176.341796875 -11 176.341796875 -11 116.341796875 45 c 128,-1,11
 56.341796875 101 56.341796875 101 56.341796875 186 c 1,12,-1
 139.341796875 186 l 1,13,14
 141.341796875 129 141.341796875 129 175.341796875 95 c 128,-1,15
 209.341796875 61 209.341796875 61 261.341796875 61 c 128,-1,16
 313.341796875 61 313.341796875 61 345.341796875 80 c 0,17,18
 436.341796875 137 436.341796875 137 436.341796875 337 c 0,19,20
 436.341796875 378 436.341796875 378 431.341796875 411 c 1,21,22
 421.341796875 330 421.341796875 330 372.841796875 290 c 128,-1,23
 324.341796875 250 324.341796875 250 245.841796875 250 c 128,-1,24
 167.341796875 250 167.341796875 250 110.341796875 305.5 c 128,-1,25
 53.341796875 361 53.341796875 361 53.341796875 447 c 0,26,27
 53.341796875 534 53.341796875 534 112.341796875 587 c 128,-1,28
 171.341796875 640 171.341796875 640 269.341796875 640 c 0,0,1
266.341796875 567 m 128,-1,30
 209.341796875 567 209.341796875 567 172.341796875 534 c 128,-1,31
 135.341796875 501 135.341796875 501 135.341796875 443 c 256,32,33
 135.341796875 385 135.341796875 385 172.841796875 352 c 128,-1,34
 210.341796875 319 210.341796875 319 266.841796875 319 c 128,-1,35
 323.341796875 319 323.341796875 319 360.841796875 354.5 c 128,-1,36
 398.341796875 390 398.341796875 390 398.341796875 445 c 128,-1,37
 398.341796875 500 398.341796875 500 360.841796875 533.5 c 128,-1,29
 323.341796875 567 323.341796875 567 266.341796875 567 c 128,-1,30
EndSplineSet
Validated: 1
Substitution2: "'onum' Oldstyle Figures in Latin lookup 0 subtable" .notdef
EndChar

StartChar: colon
Encoding: 58 58 29
Width: 231
GlyphClass: 2
Flags: W
LayerCount: 2
Fore
SplineSet
72.5 39.5 m 128,-1,1
 56 56 56 56 56 79.5 c 128,-1,2
 56 103 56 103 72.5 119.5 c 128,-1,3
 89 136 89 136 114.5 136 c 128,-1,4
 140 136 140 136 157 119.5 c 128,-1,5
 174 103 174 103 174 79.5 c 128,-1,6
 174 56 174 56 157 39.5 c 128,-1,7
 140 23 140 23 114.5 23 c 128,-1,0
 89 23 89 23 72.5 39.5 c 128,-1,1
72.5 345.5 m 128,-1,9
 56 362 56 362 56 385.5 c 128,-1,10
 56 409 56 409 72.5 425.5 c 128,-1,11
 89 442 89 442 114.5 442 c 128,-1,12
 140 442 140 442 157 425.5 c 128,-1,13
 174 409 174 409 174 385.5 c 128,-1,14
 174 362 174 362 157 345.5 c 128,-1,15
 140 329 140 329 114.5 329 c 128,-1,8
 89 329 89 329 72.5 345.5 c 128,-1,9
EndSplineSet
Validated: 1
EndChar

StartChar: semicolon
Encoding: 59 59 30
Width: 262
GlyphClass: 2
Flags: W
LayerCount: 2
Fore
SplineSet
94 10 m 128,-1,1
 79 23 79 23 79 45 c 128,-1,2
 79 67 79 67 94.5 82 c 128,-1,3
 110 97 110 97 138.5 97 c 128,-1,4
 167 97 167 97 186 74.5 c 128,-1,5
 205 52 205 52 205 18 c 128,-1,6
 205 -16 205 -16 183 -51.5 c 128,-1,7
 161 -87 161 -87 116 -109 c 1,8,-1
 57 -80 l 1,9,10
 119 -50 119 -50 132 -5 c 1,11,0
 109 -3 109 -3 94 10 c 128,-1,1
98.5 345.5 m 128,-1,13
 82 362 82 362 82 385.5 c 128,-1,14
 82 409 82 409 98.5 425.5 c 128,-1,15
 115 442 115 442 140.5 442 c 128,-1,16
 166 442 166 442 183 425.5 c 128,-1,17
 200 409 200 409 200 385.5 c 128,-1,18
 200 362 200 362 183 345.5 c 128,-1,19
 166 329 166 329 140.5 329 c 128,-1,12
 115 329 115 329 98.5 345.5 c 128,-1,13
EndSplineSet
Validated: 1
EndChar

StartChar: less
Encoding: 60 60 31
Width: 454
GlyphClass: 2
Flags: W
LayerCount: 2
Fore
SplineSet
408 512 m 1,0,-1
 120 305 l 1,1,-1
 408 101 l 1,2,-1
 356 40 l 1,3,-1
 40 271 l 1,4,-1
 40 340 l 1,5,-1
 356 572 l 1,6,-1
 408 512 l 1,0,-1
EndSplineSet
Validated: 1
EndChar

StartChar: equal
Encoding: 61 61 32
Width: 488
GlyphClass: 2
Flags: W
LayerCount: 2
Fore
SplineSet
409 185 m 1,0,-1
 409 117 l 1,1,-1
 79 117 l 1,2,-1
 79 185 l 1,3,-1
 409 185 l 1,0,-1
409 377 m 1,4,-1
 409 308 l 1,5,-1
 79 308 l 1,6,-1
 79 377 l 1,7,-1
 409 377 l 1,4,-1
EndSplineSet
Validated: 1
EndChar

StartChar: greater
Encoding: 62 62 33
Width: 454
GlyphClass: 2
Flags: W
LayerCount: 2
Fore
SplineSet
98 572 m 1,0,-1
 414 340 l 1,1,-1
 414 271 l 1,2,-1
 98 40 l 1,3,-1
 47 101 l 1,4,-1
 333 305 l 1,5,-1
 47 512 l 1,6,-1
 98 572 l 1,0,-1
EndSplineSet
Validated: 1
EndChar

StartChar: question
Encoding: 63 63 34
Width: 499
GlyphClass: 2
Flags: W
LayerCount: 2
Fore
SplineSet
248 568 m 0,0,1
 131 568 131 568 114 476 c 1,2,-1
 30 476 l 1,3,4
 37 550 37 550 91 595 c 128,-1,5
 145 640 145 640 242.5 640 c 128,-1,6
 340 640 340 640 396.5 592 c 128,-1,7
 453 544 453 544 453 475 c 0,8,9
 453 423 453 423 427 388.5 c 128,-1,10
 401 354 401 354 343 322 c 0,11,12
 318 308 318 308 301 297 c 128,-1,13
 284 286 284 286 274 272 c 0,14,15
 255 247 255 247 255 200 c 2,16,-1
 255 161 l 1,17,-1
 177 161 l 1,18,-1
 177 206 l 2,19,20
 177 269 177 269 198 302.5 c 128,-1,21
 219 336 219 336 274 366 c 128,-1,22
 329 396 329 396 348 418.5 c 128,-1,23
 367 441 367 441 367 479 c 128,-1,24
 367 517 367 517 335.5 542.5 c 128,-1,25
 304 568 304 568 248 568 c 0,0,1
217 102 m 256,26,27
 243 102 243 102 260 85 c 128,-1,28
 277 68 277 68 277 44.5 c 128,-1,29
 277 21 277 21 260 5 c 128,-1,30
 243 -11 243 -11 217 -11 c 256,31,32
 191 -11 191 -11 175 5 c 128,-1,33
 159 21 159 21 159 44.5 c 128,-1,34
 159 68 159 68 175 85 c 128,-1,35
 191 102 191 102 217 102 c 256,26,27
EndSplineSet
Validated: 1
EndChar

StartChar: at
Encoding: 64 64 35
Width: 952
GlyphClass: 2
Flags: W
LayerCount: 2
Fore
SplineSet
543.354492188 289 m 2,0,1
 543.354492188 373 543.354492188 373 484.354492188 373 c 256,2,3
 425.354492188 373 425.354492188 373 378.354492188 324.5 c 128,-1,4
 331.354492188 276 331.354492188 276 331.354492188 202 c 0,5,6
 331.354492188 149 331.354492188 149 358.854492188 120 c 128,-1,7
 386.354492188 91 386.354492188 91 427.354492188 91 c 128,-1,8
 468.354492188 91 468.354492188 91 494.354492188 114.5 c 128,-1,9
 520.354492188 138 520.354492188 138 543.354492188 183 c 1,10,-1
 543.354492188 289 l 2,0,1
609.354492188 138 m 2,11,12
 609.354492188 87 609.354492188 87 648.354492188 87 c 0,13,14
 668.354492188 87 668.354492188 87 691.854492188 100.5 c 128,-1,15
 715.354492188 114 715.354492188 114 734.354492188 140 c 0,16,17
 780.354492188 201 780.354492188 201 780.354492188 296 c 0,18,19
 780.354492188 415 780.354492188 415 699.354492188 492 c 128,-1,20
 618.354492188 569 618.354492188 569 479.354492188 569 c 0,21,22
 397.354492188 569 397.354492188 569 330.354492188 541 c 128,-1,23
 263.354492188 513 263.354492188 513 216.354492188 466 c 0,24,25
 116.354492188 366 116.354492188 366 116.354492188 217 c 128,-1,26
 116.354492188 68 116.354492188 68 222.354492188 -24.5 c 128,-1,27
 328.354492188 -117 328.354492188 -117 513.354492188 -117 c 1,28,-1
 513.354492188 -181 l 1,29,30
 300.354492188 -181 300.354492188 -181 166.354492188 -66 c 0,31,32
 103.354492188 -12 103.354492188 -12 69.3544921875 62.5 c 128,-1,33
 35.3544921875 137 35.3544921875 137 35.3544921875 226 c 128,-1,34
 35.3544921875 315 35.3544921875 315 68.3544921875 391 c 128,-1,35
 101.354492188 467 101.354492188 467 160.354492188 522.5 c 128,-1,36
 219.354492188 578 219.354492188 578 300.854492188 609 c 128,-1,37
 382.354492188 640 382.354492188 640 473.354492188 640 c 128,-1,38
 564.354492188 640 564.354492188 640 635.354492188 613 c 128,-1,39
 706.354492188 586 706.354492188 586 756.354492188 539.5 c 128,-1,40
 806.354492188 493 806.354492188 493 834.354492188 430 c 128,-1,41
 862.354492188 367 862.354492188 367 862.354492188 300 c 0,42,43
 862.354492188 178 862.354492188 178 797.854492188 103 c 128,-1,44
 733.354492188 28 733.354492188 28 647.354492188 28 c 0,45,46
 604.354492188 28 604.354492188 28 578.354492188 46 c 128,-1,47
 552.354492188 64 552.354492188 64 547.354492188 98 c 2,48,-1
 544.354492188 114 l 1,49,50
 526.354492188 76 526.354492188 76 496.354492188 52 c 128,-1,51
 466.354492188 28 466.354492188 28 426.354492188 28 c 0,52,53
 352.354492188 28 352.354492188 28 304.854492188 77 c 128,-1,54
 257.354492188 126 257.354492188 126 257.354492188 201 c 0,55,56
 257.354492188 300 257.354492188 300 323.354492188 367.5 c 128,-1,57
 389.354492188 435 389.354492188 435 480.354492188 435 c 0,58,59
 540.354492188 435 540.354492188 435 574.854492188 399 c 128,-1,60
 609.354492188 363 609.354492188 363 609.354492188 290 c 2,61,-1
 609.354492188 138 l 2,11,12
EndSplineSet
Validated: 1
EndChar

StartChar: A
Encoding: 65 65 36
Width: 575
GlyphClass: 2
Flags: W
LayerCount: 2
Fore
SplineSet
242 629 m 1,0,-1
 338 629 l 1,1,-1
 549 0 l 1,2,-1
 467 0 l 1,3,-1
 413 160 l 1,4,-1
 163 160 l 1,5,-1
 109 0 l 1,6,-1
 26 0 l 1,7,-1
 242 629 l 1,0,-1
184 222 m 1,8,-1
 393 222 l 1,9,-1
 289 532 l 1,10,-1
 184 222 l 1,8,-1
EndSplineSet
Validated: 1
EndChar

StartChar: B
Encoding: 66 66 37
Width: 622
GlyphClass: 2
Flags: W
LayerCount: 2
Fore
SplineSet
101 629 m 1,0,-1
 336 629 l 2,1,2
 435 629 435 629 488.5 582 c 128,-1,3
 542 535 542 535 542 464 c 0,4,5
 542 410 542 410 512.5 370 c 128,-1,6
 483 330 483 330 423 316 c 1,7,8
 482 306 482 306 517.5 265 c 128,-1,9
 553 224 553 224 553 172 c 0,10,11
 553 56 553 56 440 15 c 0,12,13
 398 0 398 0 337 0 c 2,14,-1
 101 0 l 1,15,-1
 101 629 l 1,0,-1
335 69 m 2,16,17
 407 69 407 69 438 98 c 128,-1,18
 469 127 469 127 469 175 c 256,19,20
 469 223 469 223 435 251.5 c 128,-1,21
 401 280 401 280 335 280 c 2,22,-1
 180 280 l 1,23,-1
 180 69 l 1,24,-1
 335 69 l 2,16,17
180 348 m 1,25,-1
 334 348 l 2,26,27
 392 348 392 348 426.5 376.5 c 128,-1,28
 461 405 461 405 461 455 c 128,-1,29
 461 505 461 505 427.5 533 c 128,-1,30
 394 561 394 561 334 561 c 2,31,-1
 180 561 l 1,32,-1
 180 348 l 1,25,-1
EndSplineSet
Validated: 1
EndChar

StartChar: C
Encoding: 67 67 38
Width: 613
GlyphClass: 2
Flags: W
LayerCount: 2
Fore
SplineSet
319 640 m 0,0,1
 420 640 420 640 481.5 589.5 c 128,-1,2
 543 539 543 539 566 458 c 1,3,-1
 481 441 l 1,4,5
 461 500 461 500 418.5 534.5 c 128,-1,6
 376 569 376 569 319 569 c 0,7,8
 240 569 240 569 188 503 c 128,-1,9
 136 437 136 437 136 319.5 c 128,-1,10
 136 202 136 202 182.5 131 c 128,-1,11
 229 60 229 60 319 60 c 0,12,13
 394 60 394 60 437.5 99.5 c 128,-1,14
 481 139 481 139 481 204 c 1,15,-1
 566 204 l 1,16,17
 566 105 566 105 498.5 47 c 128,-1,18
 431 -11 431 -11 313.5 -11 c 128,-1,19
 196 -11 196 -11 123.5 79 c 128,-1,20
 51 169 51 169 51 320 c 128,-1,21
 51 471 51 471 126 555.5 c 128,-1,22
 201 640 201 640 319 640 c 0,0,1
EndSplineSet
Validated: 1
EndChar

StartChar: D
Encoding: 68 68 39
Width: 661
GlyphClass: 2
Flags: W
LayerCount: 2
Fore
SplineSet
285 629 m 2,0,1
 427 629 427 629 512.5 543.5 c 128,-1,2
 598 458 598 458 598 314.5 c 128,-1,3
 598 171 598 171 512.5 85.5 c 128,-1,4
 427 0 427 0 285 0 c 2,5,-1
 100 0 l 1,6,-1
 100 629 l 1,7,-1
 285 629 l 2,0,1
179 69 m 1,8,-1
 285 69 l 2,9,10
 390 69 390 69 452 138.5 c 128,-1,11
 514 208 514 208 514 315 c 256,12,13
 514 422 514 422 451.5 490.5 c 128,-1,14
 389 559 389 559 285 559 c 2,15,-1
 179 559 l 1,16,-1
 179 69 l 1,8,-1
EndSplineSet
Validated: 1
EndChar

StartChar: E
Encoding: 69 69 40
Width: 562
GlyphClass: 2
Flags: W
LayerCount: 2
Fore
SplineSet
100 629 m 1,0,-1
 487 629 l 1,1,-1
 487 561 l 1,2,-1
 179 561 l 1,3,-1
 179 350 l 1,4,-1
 469 350 l 1,5,-1
 469 283 l 1,6,-1
 179 283 l 1,7,-1
 179 69 l 1,8,-1
 487 69 l 1,9,-1
 487 0 l 1,10,-1
 100 0 l 1,11,-1
 100 629 l 1,0,-1
EndSplineSet
Validated: 1
EndChar

StartChar: F
Encoding: 70 70 41
Width: 524
GlyphClass: 2
Flags: W
LayerCount: 2
Fore
SplineSet
101 629 m 1,0,-1
 483 629 l 1,1,-1
 483 561 l 1,2,-1
 180 561 l 1,3,-1
 180 352 l 1,4,-1
 462 352 l 1,5,-1
 462 284 l 1,6,-1
 180 284 l 1,7,-1
 180 0 l 1,8,-1
 101 0 l 1,9,-1
 101 629 l 1,0,-1
EndSplineSet
Validated: 1
EndChar

StartChar: G
Encoding: 71 71 42
Width: 645
GlyphClass: 2
Flags: W
LayerCount: 2
Fore
SplineSet
490 108 m 1,0,1
 448 -11 448 -11 327 -11 c 128,-1,2
 206 -11 206 -11 128.5 77 c 128,-1,3
 51 165 51 165 51 314 c 128,-1,4
 51 463 51 463 135.5 551 c 128,-1,5
 220 639 220 639 346 639 c 0,6,7
 420 639 420 639 475.5 609 c 128,-1,8
 531 579 531 579 571 513 c 1,9,-1
 495 487 l 1,10,11
 430 568 430 568 343 568 c 128,-1,12
 256 568 256 568 195.5 497 c 128,-1,13
 135 426 135 426 135 312.5 c 128,-1,14
 135 199 135 199 187 130 c 128,-1,15
 239 61 239 61 327 61 c 0,16,17
 399 61 399 61 443 109 c 128,-1,18
 487 157 487 157 487 251 c 2,19,-1
 487 253 l 1,20,-1
 329 259 l 1,21,-1
 329 311 l 1,22,-1
 564 311 l 1,23,-1
 564 0 l 1,24,-1
 500 0 l 1,25,-1
 490 108 l 1,0,1
EndSplineSet
Validated: 1
EndChar

StartChar: H
Encoding: 72 72 43
Width: 669
GlyphClass: 2
Flags: W
LayerCount: 2
Fore
SplineSet
180 629 m 1,0,-1
 180 352 l 1,1,-1
 489 352 l 1,2,-1
 489 629 l 1,3,-1
 568 629 l 1,4,-1
 568 0 l 1,5,-1
 489 0 l 1,6,-1
 489 284 l 1,7,-1
 180 284 l 1,8,-1
 180 0 l 1,9,-1
 101 0 l 1,10,-1
 101 629 l 1,11,-1
 180 629 l 1,0,-1
EndSplineSet
Validated: 1
EndChar

StartChar: I
Encoding: 73 73 44
Width: 280
GlyphClass: 2
Flags: W
LayerCount: 2
Fore
SplineSet
101 629 m 1,0,-1
 180 629 l 1,1,-1
 180 0 l 1,2,-1
 101 0 l 1,3,-1
 101 629 l 1,0,-1
EndSplineSet
Validated: 1
EndChar

StartChar: J
Encoding: 74 74 45
Width: 404
GlyphClass: 2
Flags: W
LayerCount: 2
Fore
SplineSet
277.5 34 m 128,-1,1
 231 -11 231 -11 159 -11 c 128,-1,2
 87 -11 87 -11 8 31 c 1,3,-1
 8 113 l 1,4,5
 78 65 78 65 139.5 65 c 128,-1,6
 201 65 201 65 223 95 c 128,-1,7
 245 125 245 125 245 182 c 2,8,-1
 245 629 l 1,9,-1
 324 629 l 1,10,-1
 324 182 l 2,11,0
 324 79 324 79 277.5 34 c 128,-1,1
EndSplineSet
Validated: 1
EndChar

StartChar: K
Encoding: 75 75 46
Width: 609
GlyphClass: 2
Flags: W
LayerCount: 2
Fore
SplineSet
181 629 m 1,0,-1
 181 338 l 1,1,-1
 462 629 l 1,2,-1
 571 629 l 1,3,-1
 296 346 l 1,4,-1
 588 0 l 1,5,-1
 486 0 l 1,6,-1
 243 291 l 1,7,-1
 181 227 l 1,8,-1
 181 0 l 1,9,-1
 101 0 l 1,10,-1
 101 629 l 1,11,-1
 181 629 l 1,0,-1
EndSplineSet
Validated: 1
EndChar

StartChar: L
Encoding: 76 76 47
Width: 468
GlyphClass: 2
Flags: W
LayerCount: 2
Fore
SplineSet
180 69 m 1,0,-1
 460 69 l 1,1,-1
 460 0 l 1,2,-1
 101 0 l 1,3,-1
 101 629 l 1,4,-1
 180 629 l 1,5,-1
 180 69 l 1,0,-1
EndSplineSet
Validated: 1
EndChar

StartChar: M
Encoding: 77 77 48
Width: 791
GlyphClass: 2
Flags: W
LayerCount: 2
Fore
SplineSet
157.038085938 629 m 1,0,-1
 369.038085938 124 l 1,1,-1
 579.038085938 629 l 1,2,-1
 690.038085938 629 l 1,3,-1
 690.038085938 0 l 1,4,-1
 611.038085938 0 l 1,5,-1
 611.038085938 517 l 1,6,-1
 395.038085938 0 l 1,7,-1
 342.038085938 0 l 1,8,-1
 123.038085938 524 l 1,9,-1
 123.038085938 0 l 1,10,-1
 44.0380859375 0 l 1,11,-1
 44.0380859375 629 l 1,12,-1
 157.038085938 629 l 1,0,-1
EndSplineSet
Validated: 1
EndChar

StartChar: N
Encoding: 78 78 49
Width: 646
GlyphClass: 2
Flags: W
LayerCount: 2
Fore
SplineSet
155.025390625 629 m 1,0,-1
 467.025390625 124 l 1,1,-1
 467.025390625 629 l 1,2,-1
 546.025390625 629 l 1,3,-1
 546.025390625 0 l 1,4,-1
 458.025390625 0 l 1,5,-1
 141.025390625 512 l 1,6,-1
 141.025390625 0 l 1,7,-1
 61.025390625 0 l 1,8,-1
 61.025390625 629 l 1,9,-1
 155.025390625 629 l 1,0,-1
EndSplineSet
Validated: 1
EndChar

StartChar: O
Encoding: 79 79 50
Width: 626
GlyphClass: 2
Flags: W
LayerCount: 2
Fore
SplineSet
304.012695312 640 m 0,0,1
 426.012695312 640 426.012695312 640 501.512695312 556.5 c 128,-1,2
 577.012695312 473 577.012695312 473 577.012695312 313.5 c 128,-1,3
 577.012695312 154 577.012695312 154 502.012695312 71.5 c 128,-1,4
 427.012695312 -11 427.012695312 -11 304.012695312 -11 c 256,5,6
 181.012695312 -11 181.012695312 -11 106.512695312 72.5 c 128,-1,7
 32.0126953125 156 32.0126953125 156 32.0126953125 314 c 0,8,9
 32.0126953125 473 32.0126953125 473 106.512695312 556.5 c 128,-1,10
 181.012695312 640 181.012695312 640 304.012695312 640 c 0,0,1
304.012695312 569 m 256,11,12
 216.012695312 569 216.012695312 569 165.012695312 503 c 128,-1,13
 114.012695312 437 114.012695312 437 114.012695312 313 c 128,-1,14
 114.012695312 189 114.012695312 189 165.012695312 125 c 128,-1,15
 216.012695312 61 216.012695312 61 304.012695312 61 c 256,16,17
 392.012695312 61 392.012695312 61 443.512695312 125 c 128,-1,18
 495.012695312 189 495.012695312 189 495.012695312 313 c 128,-1,19
 495.012695312 437 495.012695312 437 443.512695312 503 c 128,-1,20
 392.012695312 569 392.012695312 569 304.012695312 569 c 256,11,12
EndSplineSet
Validated: 1
EndChar

StartChar: P
Encoding: 80 80 51
Width: 554
GlyphClass: 2
Flags: W
LayerCount: 2
Fore
SplineSet
460.5 576.5 m 128,-1,1
 515 524 515 524 515 435 c 128,-1,2
 515 346 515 346 460.5 294.5 c 128,-1,3
 406 243 406 243 302 243 c 2,4,-1
 178 243 l 1,5,-1
 178 0 l 1,6,-1
 99 0 l 1,7,-1
 99 629 l 1,8,-1
 302 629 l 2,9,0
 406 629 406 629 460.5 576.5 c 128,-1,1
302 311 m 2,10,11
 367 311 367 311 400.5 344 c 128,-1,12
 434 377 434 377 434 434.5 c 128,-1,13
 434 492 434 492 400.5 526.5 c 128,-1,14
 367 561 367 561 302 561 c 2,15,-1
 178 561 l 1,16,-1
 178 311 l 1,17,-1
 302 311 l 2,10,11
EndSplineSet
Validated: 1
EndChar

StartChar: Q
Encoding: 81 81 52
Width: 652
GlyphClass: 2
Flags: W
LayerCount: 2
Fore
SplineSet
596 -148 m 1,0,1
 556 -167 556 -167 512 -167 c 0,2,3
 427 -167 427 -167 366 -78 c 2,4,-1
 319 -11 l 1,5,6
 198 -9 198 -9 124.5 74 c 128,-1,7
 51 157 51 157 51 315 c 128,-1,8
 51 473 51 473 125.5 556.5 c 128,-1,9
 200 640 200 640 323 640 c 0,10,11
 445 640 445 640 520.5 556.5 c 128,-1,12
 596 473 596 473 596 314 c 0,13,14
 596 182 596 182 543 101.5 c 128,-1,15
 490 21 490 21 399 -2 c 1,16,-1
 430 -46 l 2,17,18
 459 -85 459 -85 499 -87 c 0,19,20
 542 -87 542 -87 596 -62 c 1,21,-1
 596 -148 l 1,0,1
323 569 m 256,22,23
 235 569 235 569 184 503 c 128,-1,24
 133 437 133 437 133 313 c 128,-1,25
 133 189 133 189 184 125 c 128,-1,26
 235 61 235 61 323 61 c 256,27,28
 411 61 411 61 462.5 125 c 128,-1,29
 514 189 514 189 514 313 c 128,-1,30
 514 437 514 437 462.5 503 c 128,-1,31
 411 569 411 569 323 569 c 256,22,23
EndSplineSet
Validated: 1
EndChar

StartChar: R
Encoding: 82 82 53
Width: 613
GlyphClass: 2
Flags: W
LayerCount: 2
Fore
SplineSet
497.5 323 m 128,-1,1
 456 275 456 275 375 261 c 1,2,-1
 555 0 l 1,3,-1
 453 0 l 1,4,-1
 290 257 l 1,5,-1
 180 257 l 1,6,-1
 180 0 l 1,7,-1
 101 0 l 1,8,-1
 101 629 l 1,9,-1
 320 629 l 2,10,11
 426 629 426 629 482.5 578 c 128,-1,12
 539 527 539 527 539 449 c 128,-1,0
 539 371 539 371 497.5 323 c 128,-1,1
314 312 m 2,13,14
 385 312 385 312 421.5 346.5 c 128,-1,15
 458 381 458 381 458 437.5 c 128,-1,16
 458 494 458 494 422.5 527.5 c 128,-1,17
 387 561 387 561 320 561 c 2,18,-1
 180 561 l 1,19,-1
 180 312 l 1,20,-1
 314 312 l 2,13,14
EndSplineSet
Validated: 1
EndChar

StartChar: S
Encoding: 83 83 54
Width: 605
GlyphClass: 2
Flags: W
LayerCount: 2
Fore
SplineSet
436 476 m 1,0,1
 419 568 419 568 301 568 c 0,2,3
 238 568 238 568 204 540.5 c 128,-1,4
 170 513 170 513 170 474.5 c 128,-1,5
 170 436 170 436 191 416 c 128,-1,6
 212 396 212 396 259 381 c 2,7,-1
 390 336 l 2,8,9
 457 313 457 313 496.5 273 c 128,-1,10
 536 233 536 233 536 160.5 c 128,-1,11
 536 88 536 88 474 38.5 c 128,-1,12
 412 -11 412 -11 308 -11 c 128,-1,13
 204 -11 204 -11 137.5 41.5 c 128,-1,14
 71 94 71 94 69 189 c 1,15,-1
 146 189 l 1,16,17
 146 127 146 127 189.5 94 c 128,-1,18
 233 61 233 61 301.5 61 c 128,-1,19
 370 61 370 61 410 91.5 c 128,-1,20
 450 122 450 122 450 163.5 c 128,-1,21
 450 205 450 205 425.5 229 c 128,-1,22
 401 253 401 253 353 269 c 2,23,-1
 242 310 l 2,24,25
 164 336 164 336 124 372 c 128,-1,26
 84 408 84 408 84 477.5 c 128,-1,27
 84 547 84 547 140 593.5 c 128,-1,28
 196 640 196 640 297 640 c 128,-1,29
 398 640 398 640 451.5 595.5 c 128,-1,30
 505 551 505 551 513 476 c 1,31,-1
 436 476 l 1,0,1
EndSplineSet
Validated: 1
EndChar

StartChar: T
Encoding: 84 84 55
Width: 501
GlyphClass: 2
Flags: W
LayerCount: 2
Fore
SplineSet
6 629 m 5,0,-1
 495 629 l 5,1,-1
 495 561 l 5,2,-1
 290 561 l 5,3,-1
 290 0 l 5,4,-1
 211 0 l 5,5,-1
 211 561 l 5,6,-1
 6 561 l 5,7,-1
 6 629 l 5,0,-1
EndSplineSet
Validated: 1
EndChar

StartChar: U
Encoding: 85 85 56
Width: 615
GlyphClass: 2
Flags: W
LayerCount: 2
Fore
SplineSet
128.025390625 629 m 1,0,-1
 128.025390625 227 l 2,1,2
 128.025390625 139 128.025390625 139 172.025390625 100 c 128,-1,3
 216.025390625 61 216.025390625 61 288.025390625 61 c 256,4,5
 360.025390625 61 360.025390625 61 404.025390625 100 c 128,-1,6
 448.025390625 139 448.025390625 139 448.025390625 227 c 2,7,-1
 448.025390625 629 l 1,8,-1
 527.025390625 629 l 1,9,-1
 527.025390625 227 l 2,10,11
 527.025390625 109 527.025390625 109 462.025390625 49 c 128,-1,12
 397.025390625 -11 397.025390625 -11 287.525390625 -11 c 128,-1,13
 178.025390625 -11 178.025390625 -11 113.525390625 49 c 128,-1,14
 49.025390625 109 49.025390625 109 49.025390625 227 c 2,15,-1
 49.025390625 629 l 1,16,-1
 128.025390625 629 l 1,0,-1
EndSplineSet
Validated: 1
EndChar

StartChar: V
Encoding: 86 86 57
Width: 563
GlyphClass: 2
Flags: W
LayerCount: 2
Fore
SplineSet
101 629 m 1,0,-1
 281 100 l 1,1,-1
 462 629 l 1,2,-1
 545 629 l 1,3,-1
 322 0 l 1,4,-1
 240 0 l 1,5,-1
 18 629 l 1,6,-1
 101 629 l 1,0,-1
EndSplineSet
Validated: 1
EndChar

StartChar: W
Encoding: 87 87 58
Width: 895
GlyphClass: 2
Flags: W
LayerCount: 2
Fore
SplineSet
102 629 m 1,0,-1
 255 106 l 1,1,-1
 410 629 l 1,2,-1
 463 629 l 1,3,-1
 617 106 l 1,4,-1
 793 629 l 1,5,-1
 880 629 l 1,6,-1
 658 0 l 1,7,-1
 575 0 l 1,8,-1
 438 468 l 1,9,-1
 296 0 l 1,10,-1
 213 0 l 1,11,-1
 14 629 l 1,12,-1
 102 629 l 1,0,-1
EndSplineSet
Validated: 1
EndChar

StartChar: X
Encoding: 88 88 59
Width: 642
GlyphClass: 2
Flags: W
LayerCount: 2
Fore
SplineSet
593 0 m 1,0,-1
 495 0 l 1,1,-1
 313 251 l 1,2,-1
 144 0 l 1,3,-1
 48 0 l 1,4,-1
 270 312 l 1,5,-1
 47 629 l 1,6,-1
 142 629 l 1,7,-1
 322 372 l 1,8,-1
 488 629 l 1,9,-1
 583 629 l 1,10,-1
 366 313 l 1,11,-1
 593 0 l 1,0,-1
EndSplineSet
Validated: 1
EndChar

StartChar: Y
Encoding: 89 89 60
Width: 549
GlyphClass: 2
Flags: W
LayerCount: 2
Fore
SplineSet
104 629 m 1,0,-1
 273 340 l 1,1,-1
 446 629 l 1,2,-1
 539 629 l 1,3,-1
 313 258 l 1,4,-1
 313 0 l 1,5,-1
 233 0 l 1,6,-1
 233 258 l 1,7,-1
 10 629 l 1,8,-1
 104 629 l 1,0,-1
EndSplineSet
Validated: 1
EndChar

StartChar: Z
Encoding: 90 90 61
Width: 592
GlyphClass: 2
Flags: W
LayerCount: 2
Fore
SplineSet
73 71 m 1,0,-1
 436 554 l 1,1,-1
 73 557 l 1,2,-1
 73 629 l 1,3,-1
 535 629 l 1,4,-1
 535 558 l 1,5,-1
 172 75 l 1,6,-1
 535 72 l 1,7,-1
 535 0 l 1,8,-1
 73 0 l 1,9,-1
 73 71 l 1,0,-1
EndSplineSet
Validated: 1
EndChar

StartChar: bracketleft
Encoding: 91 91 62
Width: 317
GlyphClass: 2
Flags: W
LayerCount: 2
Fore
SplineSet
101 731 m 1,0,-1
 299 731 l 1,1,-1
 299 661 l 1,2,-1
 180 661 l 1,3,-1
 180 -32 l 1,4,-1
 299 -32 l 1,5,-1
 299 -102 l 1,6,-1
 101 -102 l 1,7,-1
 101 731 l 1,0,-1
EndSplineSet
Validated: 1
EndChar

StartChar: backslash
Encoding: 92 92 63
Width: 432
GlyphClass: 2
Flags: W
LayerCount: 2
Fore
SplineSet
45 731 m 1,0,-1
 124 731 l 1,1,-1
 376 -73 l 1,2,-1
 296 -73 l 1,3,-1
 45 731 l 1,0,-1
EndSplineSet
Validated: 1
EndChar

StartChar: bracketright
Encoding: 93 93 64
Width: 285
GlyphClass: 2
Flags: W
LayerCount: 2
Fore
SplineSet
184 -102 m 1,0,-1
 -14 -102 l 1,1,-1
 -14 -32 l 1,2,-1
 105 -32 l 1,3,-1
 105 661 l 1,4,-1
 -14 661 l 1,5,-1
 -14 731 l 1,6,-1
 184 731 l 1,7,-1
 184 -102 l 1,0,-1
EndSplineSet
Validated: 1
EndChar

StartChar: asciicircum
Encoding: 94 94 65
Width: 448
GlyphClass: 2
Flags: W
LayerCount: 2
Fore
SplineSet
21 245 m 1,0,-1
 197 586 l 1,1,-1
 258 586 l 1,2,-1
 434 245 l 1,3,-1
 346 245 l 1,4,-1
 227 491 l 1,5,-1
 110 245 l 1,6,-1
 21 245 l 1,0,-1
EndSplineSet
Validated: 1
EndChar

StartChar: underscore
Encoding: 95 95 66
Width: 726
GlyphClass: 2
Flags: W
LayerCount: 2
Fore
SplineSet
55 -56 m 1,0,-1
 671 -56 l 1,1,-1
 671 -124 l 1,2,-1
 55 -124 l 1,3,-1
 55 -56 l 1,0,-1
EndSplineSet
Validated: 1
EndChar

StartChar: grave
Encoding: 96 96 67
Width: 315
GlyphClass: 2
Flags: W
LayerCount: 2
Fore
SplineSet
57 860 m 1,0,-1
 292 727 l 1,1,-1
 269 677 l 1,2,-1
 24 790 l 1,3,-1
 57 860 l 1,0,-1
EndSplineSet
Validated: 1
EndChar

StartChar: a
Encoding: 97 97 68
Width: 512
GlyphClass: 2
Flags: W
LayerCount: 2
Fore
SplineSet
350.416015625 310 m 2,0,1
 350.416015625 375 350.416015625 375 323.416015625 403 c 128,-1,2
 296.416015625 431 296.416015625 431 244.916015625 431 c 128,-1,3
 193.416015625 431 193.416015625 431 161.916015625 410.5 c 128,-1,4
 130.416015625 390 130.416015625 390 130.416015625 346 c 1,5,-1
 43.416015625 346 l 1,6,7
 43.416015625 456 43.416015625 456 161.416015625 482 c 0,8,9
 197.416015625 490 197.416015625 490 239.416015625 490 c 0,10,11
 328.416015625 490 328.416015625 490 378.416015625 445 c 128,-1,12
 428.416015625 400 428.416015625 400 428.416015625 308 c 2,13,-1
 428.416015625 0 l 1,14,-1
 360.416015625 0 l 1,15,-1
 352.416015625 80 l 1,16,17
 308.416015625 -11 308.416015625 -11 193.416015625 -11 c 0,18,19
 116.416015625 -11 116.416015625 -11 69.916015625 32 c 128,-1,20
 23.416015625 75 23.416015625 75 23.416015625 139 c 128,-1,21
 23.416015625 203 23.416015625 203 74.916015625 239 c 128,-1,22
 126.416015625 275 126.416015625 275 203.416015625 275 c 128,-1,23
 280.416015625 275 280.416015625 275 350.416015625 249 c 1,24,-1
 350.416015625 310 l 2,0,1
350.416015625 199 m 1,25,26
 279.416015625 219 279.416015625 219 226.416015625 219 c 128,-1,27
 173.416015625 219 173.416015625 219 140.416015625 200 c 128,-1,28
 107.416015625 181 107.416015625 181 107.416015625 140 c 0,29,30
 107.416015625 50 107.416015625 50 209.416015625 50 c 0,31,32
 267.416015625 50 267.416015625 50 308.916015625 91.5 c 128,-1,33
 350.416015625 133 350.416015625 133 350.416015625 199 c 1,25,26
EndSplineSet
EndChar

StartChar: b
Encoding: 98 98 69
Width: 552
GlyphClass: 2
Flags: W
LayerCount: 2
Fore
SplineSet
148.354492188 407 m 1,0,1
 196.354492188 490 196.354492188 490 288.354492188 490 c 128,-1,2
 380.354492188 490 380.354492188 490 441.354492188 421.5 c 128,-1,3
 502.354492188 353 502.354492188 353 502.354492188 240.5 c 128,-1,4
 502.354492188 128 502.354492188 128 440.354492188 58.5 c 128,-1,5
 378.354492188 -11 378.354492188 -11 289.354492188 -11 c 0,6,7
 241.354492188 -11 241.354492188 -11 202.854492188 13 c 128,-1,8
 164.354492188 37 164.354492188 37 142.354492188 84 c 1,9,-1
 124.354492188 0 l 1,10,-1
 69.3544921875 0 l 1,11,-1
 69.3544921875 681 l 1,12,-1
 148.354492188 681 l 1,13,-1
 148.354492188 407 l 1,0,1
188.354492188 383.5 m 128,-1,15
 150.354492188 347 150.354492188 347 148.354492188 282 c 2,16,-1
 148.354492188 204 l 2,17,18
 148.354492188 138 148.354492188 138 187.854492188 98.5 c 128,-1,19
 227.354492188 59 227.354492188 59 283.354492188 59 c 128,-1,20
 339.354492188 59 339.354492188 59 380.354492188 108.5 c 128,-1,21
 421.354492188 158 421.354492188 158 421.354492188 240 c 128,-1,22
 421.354492188 322 421.354492188 322 380.854492188 371 c 128,-1,23
 340.354492188 420 340.354492188 420 283.354492188 420 c 128,-1,14
 226.354492188 420 226.354492188 420 188.354492188 383.5 c 128,-1,15
EndSplineSet
Validated: 1
EndChar

StartChar: c
Encoding: 99 99 70
Width: 489
GlyphClass: 2
Flags: W
LayerCount: 2
Fore
SplineSet
369.68359375 446.5 m 128,-1,1
 419.68359375 403 419.68359375 403 434.68359375 338 c 1,2,-1
 354.68359375 331 l 1,3,4
 341.68359375 373 341.68359375 373 312.68359375 396.5 c 128,-1,5
 283.68359375 420 283.68359375 420 248.68359375 420 c 0,6,7
 184.68359375 420 184.68359375 420 145.18359375 372 c 128,-1,8
 105.68359375 324 105.68359375 324 105.68359375 241.5 c 128,-1,9
 105.68359375 159 105.68359375 159 144.18359375 109 c 128,-1,10
 182.68359375 59 182.68359375 59 240.18359375 59 c 128,-1,11
 297.68359375 59 297.68359375 59 326.18359375 85.5 c 128,-1,12
 354.68359375 112 354.68359375 112 354.68359375 161 c 1,13,-1
 435.68359375 161 l 1,14,15
 435.68359375 84 435.68359375 84 382.18359375 36.5 c 128,-1,16
 328.68359375 -11 328.68359375 -11 242.68359375 -11 c 0,17,18
 151.68359375 -11 151.68359375 -11 88.18359375 58 c 128,-1,19
 24.68359375 127 24.68359375 127 24.68359375 241.5 c 128,-1,20
 24.68359375 356 24.68359375 356 87.68359375 423 c 128,-1,21
 150.68359375 490 150.68359375 490 235.18359375 490 c 128,-1,0
 319.68359375 490 319.68359375 490 369.68359375 446.5 c 128,-1,1
EndSplineSet
Validated: 1
EndChar

StartChar: d
Encoding: 100 100 71
Width: 562
GlyphClass: 2
Flags: W
LayerCount: 2
Fore
SplineSet
382.354492188 407 m 1,0,-1
 382.354492188 681 l 1,1,-1
 460.354492188 681 l 1,2,-1
 460.354492188 0 l 1,3,-1
 396.354492188 0 l 1,4,-1
 386.354492188 80 l 1,5,6
 363.354492188 35 363.354492188 35 325.354492188 12 c 128,-1,7
 287.354492188 -11 287.354492188 -11 242.354492188 -11 c 0,8,9
 151.354492188 -11 151.354492188 -11 89.8544921875 59 c 128,-1,10
 28.3544921875 129 28.3544921875 129 28.3544921875 241.5 c 128,-1,11
 28.3544921875 354 28.3544921875 354 88.8544921875 422 c 128,-1,12
 149.354492188 490 149.354492188 490 241.854492188 490 c 128,-1,13
 334.354492188 490 334.354492188 490 382.354492188 407 c 1,0,-1
148.854492188 371 m 128,-1,15
 109.354492188 322 109.354492188 322 109.354492188 240 c 128,-1,16
 109.354492188 158 109.354492188 158 149.354492188 108.5 c 128,-1,17
 189.354492188 59 189.354492188 59 245.354492188 59 c 128,-1,18
 301.354492188 59 301.354492188 59 340.854492188 96.5 c 128,-1,19
 380.354492188 134 380.354492188 134 382.354492188 197 c 2,20,-1
 382.354492188 275 l 2,21,22
 382.354492188 342 382.354492188 342 343.354492188 381 c 128,-1,23
 304.354492188 420 304.354492188 420 246.354492188 420 c 128,-1,14
 188.354492188 420 188.354492188 420 148.854492188 371 c 128,-1,15
EndSplineSet
Validated: 1
EndChar

StartChar: e
Encoding: 101 101 72
Width: 489
GlyphClass: 2
Flags: W
LayerCount: 2
Fore
SplineSet
240.68359375 53 m 0,0,1
 339.68359375 53 339.68359375 53 353.68359375 140 c 1,2,-1
 434.68359375 140 l 1,3,4
 423.68359375 68 423.68359375 68 371.18359375 28.5 c 128,-1,5
 318.68359375 -11 318.68359375 -11 240.68359375 -11 c 0,6,7
 144.68359375 -11 144.68359375 -11 84.68359375 57.5 c 128,-1,8
 24.68359375 126 24.68359375 126 24.68359375 240 c 128,-1,9
 24.68359375 354 24.68359375 354 85.18359375 422 c 128,-1,10
 145.68359375 490 145.68359375 490 246.18359375 490 c 128,-1,11
 346.68359375 490 346.68359375 490 396.18359375 412 c 128,-1,12
 445.68359375 334 445.68359375 334 430.68359375 222 c 1,13,-1
 103.68359375 222 l 1,14,15
 103.68359375 148 103.68359375 148 139.68359375 100.5 c 128,-1,16
 175.68359375 53 175.68359375 53 240.68359375 53 c 0,0,1
298.68359375 415 m 0,17,18
 275.68359375 427 275.68359375 427 242.68359375 427 c 0,19,20
 181.68359375 427 181.68359375 427 146.18359375 385.5 c 128,-1,21
 110.68359375 344 110.68359375 344 104.68359375 282 c 1,22,-1
 359.68359375 282 l 1,23,24
 359.68359375 382 359.68359375 382 298.68359375 415 c 0,17,18
EndSplineSet
Validated: 33
EndChar

StartChar: f
Encoding: 102 102 73
Width: 305
GlyphClass: 2
Flags: W
LayerCount: 2
Fore
SplineSet
295.025390625 614 m 1,0,1
 262.025390625 627 262.025390625 627 243.025390625 627 c 0,2,3
 208.025390625 627 208.025390625 627 188.025390625 610 c 128,-1,4
 168.025390625 593 168.025390625 593 168.025390625 550 c 2,5,-1
 168.025390625 478 l 1,6,-1
 267.025390625 478 l 1,7,-1
 267.025390625 424 l 1,8,-1
 168.025390625 424 l 1,9,-1
 168.025390625 0 l 1,10,-1
 90.025390625 0 l 1,11,-1
 90.025390625 424 l 1,12,-1
 11.025390625 424 l 1,13,-1
 11.025390625 478 l 1,14,-1
 90.025390625 478 l 1,15,-1
 90.025390625 551 l 2,16,17
 90.025390625 622 90.025390625 622 129.025390625 655.5 c 128,-1,18
 168.025390625 689 168.025390625 689 219.025390625 689 c 128,-1,19
 270.025390625 689 270.025390625 689 309.025390625 676 c 1,20,-1
 295.025390625 614 l 1,0,1
EndSplineSet
Validated: 1
EndChar

StartChar: g
Encoding: 103 103 74
Width: 552
GlyphClass: 2
Flags: W
LayerCount: 2
Fore
SplineSet
108.341796875 15 m 1,0,1
 48.341796875 44 48.341796875 44 48.341796875 104 c 0,2,3
 48.341796875 135 48.341796875 135 71.841796875 158.5 c 128,-1,4
 95.341796875 182 95.341796875 182 130.341796875 190 c 1,5,6
 76.341796875 238 76.341796875 238 76.341796875 316 c 256,7,8
 76.341796875 394 76.341796875 394 131.841796875 442 c 128,-1,9
 187.341796875 490 187.341796875 490 263.341796875 490 c 128,-1,10
 339.341796875 490 339.341796875 490 392.341796875 454 c 1,11,12
 399.341796875 507 399.341796875 507 434.841796875 539 c 128,-1,13
 470.341796875 571 470.341796875 571 528.341796875 571 c 1,14,-1
 521.341796875 493 l 1,15,16
 433.341796875 493 433.341796875 493 429.341796875 419 c 1,17,18
 464.341796875 376 464.341796875 376 464.341796875 316 c 0,19,20
 464.341796875 239 464.341796875 239 408.841796875 189.5 c 128,-1,21
 353.341796875 140 353.341796875 140 270.341796875 140 c 0,22,23
 213.341796875 140 213.341796875 140 169.341796875 163 c 1,24,25
 149.341796875 159 149.341796875 159 133.341796875 144.5 c 128,-1,26
 117.341796875 130 117.341796875 130 117.341796875 105 c 0,27,28
 117.341796875 52 117.341796875 52 205.341796875 52 c 2,29,-1
 391.341796875 52 l 2,30,31
 458.341796875 52 458.341796875 52 497.341796875 23.5 c 128,-1,32
 536.341796875 -5 536.341796875 -5 536.341796875 -56 c 0,33,34
 536.341796875 -132 536.341796875 -132 459.841796875 -189 c 128,-1,35
 383.341796875 -246 383.341796875 -246 266.341796875 -246 c 128,-1,36
 149.341796875 -246 149.341796875 -246 82.341796875 -202.5 c 128,-1,37
 15.341796875 -159 15.341796875 -159 15.341796875 -93 c 0,38,39
 15.341796875 -50 15.341796875 -50 40.841796875 -23 c 128,-1,40
 66.341796875 4 66.341796875 4 108.341796875 15 c 1,0,1
93.341796875 -90 m 256,41,42
 93.341796875 -128 93.341796875 -128 134.841796875 -155.5 c 128,-1,43
 176.341796875 -183 176.341796875 -183 260.841796875 -183 c 128,-1,44
 345.341796875 -183 345.341796875 -183 401.841796875 -146.5 c 128,-1,45
 458.341796875 -110 458.341796875 -110 458.341796875 -61 c 0,46,47
 458.341796875 -38 458.341796875 -38 441.841796875 -21.5 c 128,-1,48
 425.341796875 -5 425.341796875 -5 391.341796875 -5 c 2,49,-1
 198.341796875 -5 l 2,50,51
 147.341796875 -7 147.341796875 -7 120.341796875 -29.5 c 128,-1,52
 93.341796875 -52 93.341796875 -52 93.341796875 -90 c 256,41,42
356.341796875 400.5 m 128,-1,54
 325.341796875 433 325.341796875 433 270.841796875 433 c 128,-1,55
 216.341796875 433 216.341796875 433 185.341796875 400.5 c 128,-1,56
 154.341796875 368 154.341796875 368 154.341796875 316 c 256,57,58
 154.341796875 264 154.341796875 264 185.841796875 230.5 c 128,-1,59
 217.341796875 197 217.341796875 197 271.341796875 197 c 256,60,61
 325.341796875 197 325.341796875 197 356.341796875 231 c 128,-1,62
 387.341796875 265 387.341796875 265 387.341796875 316.5 c 128,-1,53
 387.341796875 368 387.341796875 368 356.341796875 400.5 c 128,-1,54
EndSplineSet
Validated: 1
EndChar

StartChar: h
Encoding: 104 104 75
Width: 585
GlyphClass: 2
Flags: W
LayerCount: 2
Fore
SplineSet
161.012695312 390 m 1,0,1
 209.012695312 490 209.012695312 490 320.012695312 490 c 0,2,3
 405.012695312 490 405.012695312 490 452.512695312 434 c 128,-1,4
 500.012695312 378 500.012695312 378 500.012695312 281 c 2,5,-1
 500.012695312 0 l 1,6,-1
 422.012695312 0 l 1,7,-1
 422.012695312 281 l 2,8,9
 422.012695312 350 422.012695312 350 389.512695312 385 c 128,-1,10
 357.012695312 420 357.012695312 420 296.012695312 420 c 128,-1,11
 235.012695312 420 235.012695312 420 198.012695312 368.5 c 128,-1,12
 161.012695312 317 161.012695312 317 161.012695312 226 c 2,13,-1
 161.012695312 0 l 1,14,-1
 82.0126953125 0 l 1,15,-1
 82.0126953125 681 l 1,16,-1
 161.012695312 681 l 1,17,-1
 161.012695312 390 l 1,0,1
EndSplineSet
Validated: 1
EndChar

StartChar: i
Encoding: 105 105 76
Width: 264
GlyphClass: 2
Flags: W
LayerCount: 2
Fore
SplineSet
72.044921875 479 m 1,0,-1
 151.044921875 479 l 1,1,-1
 151.044921875 0 l 1,2,-1
 72.044921875 0 l 1,3,-1
 72.044921875 479 l 1,0,-1
73.544921875 604.5 m 128,-1,5
 60.044921875 618 60.044921875 618 60.044921875 640.5 c 128,-1,6
 60.044921875 663 60.044921875 663 73.544921875 676.5 c 128,-1,7
 87.044921875 690 87.044921875 690 111.044921875 690 c 128,-1,8
 135.044921875 690 135.044921875 690 149.544921875 676.5 c 128,-1,9
 164.044921875 663 164.044921875 663 164.044921875 640.5 c 128,-1,10
 164.044921875 618 164.044921875 618 149.544921875 604.5 c 128,-1,11
 135.044921875 591 135.044921875 591 111.044921875 591 c 128,-1,4
 87.044921875 591 87.044921875 591 73.544921875 604.5 c 128,-1,5
EndSplineSet
Validated: 1
EndChar

StartChar: j
Encoding: 106 106 77
Width: 307
GlyphClass: 2
Flags: W
LayerCount: 2
Fore
SplineSet
116.170898438 604.5 m 128,-1,1
 102.670898438 618 102.670898438 618 102.670898438 640.5 c 128,-1,2
 102.670898438 663 102.670898438 663 116.170898438 676.5 c 128,-1,3
 129.670898438 690 129.670898438 690 153.670898438 690 c 256,4,5
 177.670898438 690 177.670898438 690 192.170898438 676.5 c 128,-1,6
 206.670898438 663 206.670898438 663 206.670898438 640.5 c 128,-1,7
 206.670898438 618 206.670898438 618 192.170898438 604.5 c 128,-1,8
 177.670898438 591 177.670898438 591 153.670898438 591 c 256,9,0
 129.670898438 591 129.670898438 591 116.170898438 604.5 c 128,-1,1
26.6708984375 -177 m 0,10,11
 114.670898438 -177 114.670898438 -177 114.670898438 -67 c 2,12,-1
 114.670898438 480 l 1,13,-1
 193.670898438 480 l 1,14,-1
 193.670898438 -67 l 2,15,16
 193.670898438 -204 193.670898438 -204 103.670898438 -236 c 0,17,18
 75.6708984375 -246 75.6708984375 -246 41.6708984375 -246 c 0,19,20
 -20.3291015625 -246 -20.3291015625 -246 -92.3291015625 -209 c 1,21,-1
 -88.3291015625 -140 l 1,22,23
 -25.3291015625 -177 -25.3291015625 -177 26.6708984375 -177 c 0,10,11
EndSplineSet
Validated: 1
EndChar

StartChar: k
Encoding: 107 107 78
Width: 514
GlyphClass: 2
Flags: W
LayerCount: 2
Fore
SplineSet
195.856445312 253 m 1,0,-1
 131.856445312 201 l 1,1,-1
 131.856445312 0 l 1,2,-1
 52.8564453125 0 l 1,3,-1
 52.8564453125 681 l 1,4,-1
 131.856445312 681 l 1,5,-1
 131.856445312 285 l 1,6,-1
 362.856445312 478 l 1,7,-1
 472.856445312 478 l 1,8,-1
 252.856445312 299 l 1,9,-1
 483.856445312 0 l 1,10,-1
 386.856445312 0 l 1,11,-1
 195.856445312 253 l 1,0,-1
EndSplineSet
Validated: 1
EndChar

StartChar: l
Encoding: 108 108 79
Width: 235
GlyphClass: 2
Flags: W
LayerCount: 2
Fore
SplineSet
56.6962890625 681 m 1,0,-1
 135.696289062 681 l 1,1,-1
 135.696289062 0 l 1,2,-1
 56.6962890625 0 l 1,3,-1
 56.6962890625 681 l 1,0,-1
EndSplineSet
Validated: 1
EndChar

StartChar: m
Encoding: 109 109 80
Width: 910
GlyphClass: 2
Flags: W
LayerCount: 2
Fore
SplineSet
153.36328125 386 m 1,0,1
 200.36328125 490 200.36328125 490 314.36328125 490 c 0,2,3
 376.36328125 490 376.36328125 490 418.36328125 459.5 c 128,-1,4
 460.36328125 429 460.36328125 429 479.36328125 375 c 1,5,6
 524.36328125 490 524.36328125 490 646.36328125 490 c 0,7,8
 732.36328125 490 732.36328125 490 779.36328125 434 c 128,-1,9
 826.36328125 378 826.36328125 378 826.36328125 281 c 2,10,-1
 826.36328125 0 l 1,11,-1
 748.36328125 0 l 1,12,-1
 748.36328125 281 l 2,13,14
 748.36328125 350 748.36328125 350 715.86328125 385 c 128,-1,15
 683.36328125 420 683.36328125 420 622.36328125 420 c 128,-1,16
 561.36328125 420 561.36328125 420 527.86328125 370 c 128,-1,17
 494.36328125 320 494.36328125 320 494.36328125 232 c 2,18,-1
 494.36328125 0 l 1,19,-1
 416.36328125 0 l 1,20,-1
 416.36328125 281 l 2,21,22
 416.36328125 350 416.36328125 350 383.86328125 385 c 128,-1,23
 351.36328125 420 351.36328125 420 291.36328125 420 c 128,-1,24
 231.36328125 420 231.36328125 420 194.36328125 371 c 128,-1,25
 157.36328125 322 157.36328125 322 155.36328125 235 c 2,26,-1
 155.36328125 0 l 1,27,-1
 76.36328125 0 l 1,28,-1
 76.36328125 478 l 1,29,-1
 144.36328125 478 l 1,30,-1
 153.36328125 386 l 1,0,1
EndSplineSet
Validated: 1
EndChar

StartChar: n
Encoding: 110 110 81
Width: 565
GlyphClass: 2
Flags: W
LayerCount: 2
Fore
SplineSet
139.025390625 386 m 1,0,1
 186.025390625 490 186.025390625 490 300.025390625 490 c 0,2,3
 385.025390625 490 385.025390625 490 432.525390625 434 c 128,-1,4
 480.025390625 378 480.025390625 378 480.025390625 281 c 2,5,-1
 480.025390625 0 l 1,6,-1
 402.025390625 0 l 1,7,-1
 402.025390625 281 l 2,8,9
 402.025390625 350 402.025390625 350 369.525390625 385 c 128,-1,10
 337.025390625 420 337.025390625 420 277.025390625 420 c 128,-1,11
 217.025390625 420 217.025390625 420 180.025390625 371 c 128,-1,12
 143.025390625 322 143.025390625 322 141.025390625 235 c 2,13,-1
 141.025390625 0 l 1,14,-1
 62.025390625 0 l 1,15,-1
 62.025390625 478 l 1,16,-1
 130.025390625 478 l 1,17,-1
 139.025390625 386 l 1,0,1
EndSplineSet
Validated: 1
EndChar

StartChar: o
Encoding: 111 111 82
Width: 520
GlyphClass: 2
Flags: W
LayerCount: 2
Fore
SplineSet
247.68359375 490 m 256,0,1
 347.68359375 490 347.68359375 490 409.18359375 425 c 128,-1,2
 470.68359375 360 470.68359375 360 470.68359375 239 c 0,3,4
 470.68359375 119 470.68359375 119 409.18359375 54 c 128,-1,5
 347.68359375 -11 347.68359375 -11 247.68359375 -11 c 256,6,7
 147.68359375 -11 147.68359375 -11 86.18359375 54 c 128,-1,8
 24.68359375 119 24.68359375 119 24.68359375 239 c 0,9,10
 24.68359375 360 24.68359375 360 86.18359375 425 c 128,-1,11
 147.68359375 490 147.68359375 490 247.68359375 490 c 256,0,1
354.68359375 373.5 m 128,-1,13
 318.68359375 422 318.68359375 422 249.18359375 422 c 128,-1,14
 179.68359375 422 179.68359375 422 142.68359375 373.5 c 128,-1,15
 105.68359375 325 105.68359375 325 105.68359375 239.5 c 128,-1,16
 105.68359375 154 105.68359375 154 140.68359375 105.5 c 128,-1,17
 175.68359375 57 175.68359375 57 245.18359375 57 c 128,-1,18
 314.68359375 57 314.68359375 57 352.68359375 105.5 c 128,-1,19
 390.68359375 154 390.68359375 154 390.68359375 239.5 c 128,-1,12
 390.68359375 325 390.68359375 325 354.68359375 373.5 c 128,-1,13
EndSplineSet
Validated: 1
EndChar

StartChar: p
Encoding: 112 112 83
Width: 581
GlyphClass: 2
Flags: W
LayerCount: 2
Fore
SplineSet
162.341796875 405 m 1,0,1
 209.341796875 490 209.341796875 490 302.841796875 490 c 128,-1,2
 396.341796875 490 396.341796875 490 458.841796875 421 c 128,-1,3
 521.341796875 352 521.341796875 352 521.341796875 239 c 128,-1,4
 521.341796875 126 521.341796875 126 458.341796875 57.5 c 128,-1,5
 395.341796875 -11 395.341796875 -11 303.341796875 -11 c 128,-1,6
 211.341796875 -11 211.341796875 -11 167.341796875 58 c 1,7,-1
 167.341796875 -235 l 1,8,-1
 88.341796875 -235 l 1,9,-1
 88.341796875 478 l 1,10,-1
 153.341796875 478 l 1,11,-1
 162.341796875 405 l 1,0,1
397.841796875 107 m 128,-1,13
 440.341796875 155 440.341796875 155 440.341796875 238.5 c 128,-1,14
 440.341796875 322 440.341796875 322 399.841796875 371 c 128,-1,15
 359.341796875 420 359.341796875 420 301.341796875 420 c 128,-1,16
 243.341796875 420 243.341796875 420 206.341796875 383.5 c 128,-1,17
 169.341796875 347 169.341796875 347 167.341796875 285 c 2,18,-1
 167.341796875 194 l 2,19,20
 167.341796875 131 167.341796875 131 205.341796875 95 c 128,-1,21
 243.341796875 59 243.341796875 59 299.341796875 59 c 128,-1,12
 355.341796875 59 355.341796875 59 397.841796875 107 c 128,-1,13
EndSplineSet
Validated: 1
EndChar

StartChar: q
Encoding: 113 113 84
Width: 572
GlyphClass: 2
Flags: W
LayerCount: 2
Fore
SplineSet
251.341796875 490 m 0,0,1
 353.341796875 490 353.341796875 490 399.341796875 400 c 1,2,-1
 416.341796875 478 l 1,3,-1
 470.341796875 478 l 1,4,-1
 470.341796875 -81 l 2,5,6
 470.341796875 -130 470.341796875 -130 481.841796875 -146.5 c 128,-1,7
 493.341796875 -163 493.341796875 -163 507.841796875 -170.5 c 128,-1,8
 522.341796875 -178 522.341796875 -178 543.341796875 -185 c 1,9,-1
 517.341796875 -246 l 1,10,11
 449.341796875 -228 449.341796875 -228 420.841796875 -189 c 128,-1,12
 392.341796875 -150 392.341796875 -150 392.341796875 -76 c 2,13,-1
 392.341796875 76 l 1,14,15
 351.341796875 -11 351.341796875 -11 257.841796875 -11 c 128,-1,16
 164.341796875 -11 164.341796875 -11 101.341796875 57.5 c 128,-1,17
 38.341796875 126 38.341796875 126 38.341796875 239 c 128,-1,18
 38.341796875 352 38.341796875 352 100.841796875 421 c 128,-1,19
 163.341796875 490 163.341796875 490 251.341796875 490 c 0,0,1
159.841796875 371 m 128,-1,21
 119.341796875 322 119.341796875 322 119.341796875 238.5 c 128,-1,22
 119.341796875 155 119.341796875 155 162.341796875 107 c 128,-1,23
 205.341796875 59 205.341796875 59 262.341796875 59 c 0,24,25
 344.341796875 59 344.341796875 59 379.341796875 132 c 0,26,27
 391.341796875 155 391.341796875 155 392.341796875 187 c 2,28,-1
 392.341796875 278 l 2,29,30
 392.341796875 344 392.341796875 344 354.341796875 382 c 128,-1,31
 316.341796875 420 316.341796875 420 258.341796875 420 c 128,-1,20
 200.341796875 420 200.341796875 420 159.841796875 371 c 128,-1,21
EndSplineSet
Validated: 1
EndChar

StartChar: r
Encoding: 114 114 85
Width: 336
GlyphClass: 2
Flags: W
LayerCount: 2
Fore
SplineSet
251.696289062 411 m 0,0,1
 138.696289062 411 138.696289062 411 134.696289062 233 c 1,2,-1
 134.696289062 0 l 1,3,-1
 55.6962890625 0 l 1,4,-1
 55.6962890625 479 l 1,5,-1
 134.696289062 479 l 1,6,-1
 134.696289062 387 l 1,7,8
 170.696289062 487 170.696289062 487 261.696289062 487 c 0,9,10
 290.696289062 487 290.696289062 487 316.696289062 478 c 1,11,-1
 312.696289062 401 l 1,12,13
 282.696289062 411 282.696289062 411 251.696289062 411 c 0,0,1
EndSplineSet
Validated: 1
EndChar

StartChar: s
Encoding: 115 115 86
Width: 507
GlyphClass: 2
Flags: W
LayerCount: 2
Fore
SplineSet
107.512695312 455 m 128,-1,1
 158.012695312 490 158.012695312 490 244.012695312 490 c 128,-1,2
 330.012695312 490 330.012695312 490 378.512695312 454 c 128,-1,3
 427.012695312 418 427.012695312 418 429.012695312 363 c 1,4,-1
 352.012695312 363 l 1,5,6
 343.012695312 428 343.012695312 428 242.012695312 428 c 0,7,8
 193.012695312 428 193.012695312 428 166.512695312 406 c 128,-1,9
 140.012695312 384 140.012695312 384 140.012695312 358.5 c 128,-1,10
 140.012695312 333 140.012695312 333 160.012695312 315.5 c 128,-1,11
 180.012695312 298 180.012695312 298 224.012695312 285 c 2,12,-1
 320.012695312 253 l 2,13,14
 381.012695312 234 381.012695312 234 413.512695312 204.5 c 128,-1,15
 446.012695312 175 446.012695312 175 446.012695312 123.5 c 128,-1,16
 446.012695312 72 446.012695312 72 393.012695312 30.5 c 128,-1,17
 340.012695312 -11 340.012695312 -11 245.012695312 -11 c 128,-1,18
 150.012695312 -11 150.012695312 -11 97.0126953125 31.5 c 128,-1,19
 44.0126953125 74 44.0126953125 74 41.0126953125 141 c 1,20,-1
 117.012695312 141 l 1,21,22
 119.012695312 96 119.012695312 96 153.512695312 73.5 c 128,-1,23
 188.012695312 51 188.012695312 51 240.012695312 51 c 128,-1,24
 292.012695312 51 292.012695312 51 326.012695312 73 c 128,-1,25
 360.012695312 95 360.012695312 95 360.012695312 125.5 c 128,-1,26
 360.012695312 156 360.012695312 156 340.012695312 172 c 128,-1,27
 320.012695312 188 320.012695312 188 275.012695312 200 c 2,28,-1
 182.012695312 231 l 1,29,30
 57.0126953125 268 57.0126953125 268 57.0126953125 361 c 0,31,0
 57.0126953125 420 57.0126953125 420 107.512695312 455 c 128,-1,1
EndSplineSet
Validated: 1
EndChar

StartChar: t
Encoding: 116 116 87
Width: 336
GlyphClass: 2
Flags: W
LayerCount: 2
Fore
SplineSet
313 14 m 1,0,1
 227 -26 227 -26 156 -3 c 0,2,3
 105 13 105 13 84 64 c 0,4,5
 73 89 73 89 73 124 c 2,6,-1
 73 418 l 1,7,-1
 -4 418 l 1,8,-1
 -4 478 l 1,9,-1
 73 478 l 1,10,-1
 73 611 l 1,11,-1
 151 611 l 1,12,-1
 151 478 l 1,13,-1
 301 478 l 1,14,-1
 301 418 l 1,15,-1
 151 418 l 1,16,-1
 151 125 l 2,17,18
 151 52 151 52 219 52 c 0,19,20
 256 52 256 52 302 70 c 1,21,-1
 313 14 l 1,0,1
EndSplineSet
Validated: 33
EndChar

StartChar: u
Encoding: 117 117 88
Width: 612
GlyphClass: 2
Flags: W
LayerCount: 2
Fore
SplineSet
434.676757812 95 m 1,0,1
 385.676757812 -9 385.676757812 -9 275.676757812 -9 c 0,2,3
 194.676757812 -9 194.676757812 -9 145.176757812 36 c 128,-1,4
 95.6767578125 81 95.6767578125 81 95.6767578125 175 c 2,5,-1
 95.6767578125 479 l 1,6,-1
 174.676757812 479 l 1,7,-1
 174.676757812 181 l 2,8,9
 174.676757812 60 174.676757812 60 286.676757812 60 c 0,10,11
 351.676757812 60 351.676757812 60 392.176757812 110 c 128,-1,12
 432.676757812 160 432.676757812 160 434.676757812 238 c 2,13,-1
 434.676757812 479 l 1,14,-1
 513.676757812 479 l 1,15,-1
 513.676757812 0 l 1,16,-1
 434.676757812 0 l 1,17,-1
 434.676757812 95 l 1,0,1
EndSplineSet
EndChar

StartChar: v
Encoding: 118 118 89
Width: 496
GlyphClass: 2
Flags: W
LayerCount: 2
Fore
SplineSet
100.670898438 478 m 1,0,-1
 244.670898438 83 l 1,1,-1
 389.670898438 478 l 1,2,-1
 478.670898438 478 l 1,3,-1
 288.670898438 0 l 1,4,-1
 201.670898438 0 l 1,5,-1
 11.6708984375 478 l 1,6,-1
 100.670898438 478 l 1,0,-1
EndSplineSet
Validated: 1
EndChar

StartChar: w
Encoding: 119 119 90
Width: 718
GlyphClass: 2
Flags: W
LayerCount: 2
Fore
SplineSet
93.6708984375 478 m 1,0,-1
 209.670898438 97 l 1,1,-1
 323.670898438 478 l 1,2,-1
 389.670898438 478 l 1,3,-1
 502.670898438 93 l 1,4,-1
 619.670898438 478 l 1,5,-1
 697.670898438 478 l 1,6,-1
 541.670898438 0 l 1,7,-1
 464.670898438 0 l 1,8,-1
 354.670898438 358 l 1,9,-1
 246.670898438 0 l 1,10,-1
 170.670898438 0 l 1,11,-1
 11.6708984375 478 l 1,12,-1
 93.6708984375 478 l 1,0,-1
EndSplineSet
Validated: 1
EndChar

StartChar: x
Encoding: 120 120 91
Width: 505
GlyphClass: 2
Flags: W
LayerCount: 2
Fore
SplineSet
478.670898438 0 m 1,0,-1
 382.670898438 0 l 1,1,-1
 245.670898438 181 l 1,2,-1
 115.670898438 0 l 1,3,-1
 19.6708984375 0 l 1,4,-1
 200.670898438 239 l 1,5,-1
 19.6708984375 479 l 1,6,-1
 115.670898438 479 l 1,7,-1
 252.670898438 299 l 1,8,-1
 383.670898438 479 l 1,9,-1
 479.670898438 479 l 1,10,-1
 296.670898438 239 l 1,11,-1
 478.670898438 0 l 1,0,-1
EndSplineSet
Validated: 1
EndChar

StartChar: y
Encoding: 121 121 92
Width: 458
GlyphClass: 2
Flags: W
LayerCount: 2
Fore
SplineSet
-20.31640625 -139 m 1,0,1
 28.68359375 -177 28.68359375 -177 82.68359375 -177 c 0,2,3
 122.68359375 -177 122.68359375 -177 151.68359375 -137 c 0,4,5
 172.68359375 -108 172.68359375 -108 189.68359375 -49 c 2,6,-1
 203.68359375 0 l 1,7,-1
 7.68359375 478 l 1,8,-1
 95.68359375 478 l 1,9,-1
 240.68359375 97 l 1,10,-1
 353.68359375 478 l 1,11,-1
 433.68359375 478 l 1,12,-1
 254.68359375 -95 l 2,13,14
 231.68359375 -168 231.68359375 -168 194.18359375 -207 c 128,-1,15
 156.68359375 -246 156.68359375 -246 99.18359375 -246 c 128,-1,16
 41.68359375 -246 41.68359375 -246 -20.31640625 -211 c 1,17,-1
 -20.31640625 -139 l 1,0,1
EndSplineSet
Validated: 1
EndChar

StartChar: z
Encoding: 122 122 93
Width: 475
GlyphClass: 2
Flags: W
LayerCount: 2
Fore
SplineSet
53 64 m 1,0,-1
 334 414 l 1,1,-1
 53 414 l 1,2,-1
 53 478 l 1,3,-1
 423 478 l 1,4,-1
 423 414 l 1,5,-1
 146 64 l 1,6,-1
 423 64 l 1,7,-1
 423 0 l 1,8,-1
 53 0 l 1,9,-1
 53 64 l 1,0,-1
EndSplineSet
Validated: 1
EndChar

StartChar: braceleft
Encoding: 123 123 94
Width: 349
GlyphClass: 2
Flags: W
LayerCount: 2
Fore
SplineSet
154 303 m 1,0,1
 206 278 206 278 206 190 c 2,2,-1
 206 97 l 2,3,4
 206 16 206 16 236.5 -26.5 c 128,-1,5
 267 -69 267 -69 341 -69 c 1,6,-1
 341 -138 l 1,7,8
 128 -138 128 -138 128 96 c 2,9,-1
 128 188 l 2,10,11
 128 231 128 231 119.5 249 c 128,-1,12
 111 267 111 267 92 267 c 2,13,-1
 75 267 l 1,14,-1
 75 343 l 1,15,-1
 92 343 l 2,16,17
 111 343 111 343 119.5 360.5 c 128,-1,18
 128 378 128 378 128 422 c 2,19,-1
 128 513 l 2,20,21
 128 681 128 681 242 730 c 0,22,23
 282 748 282 748 341 748 c 1,24,-1
 341 679 l 1,25,26
 267 679 267 679 236.5 636.5 c 128,-1,27
 206 594 206 594 206 512 c 2,28,-1
 206 420 l 2,29,30
 206 334 206 334 154 307 c 1,31,-1
 154 303 l 1,0,1
EndSplineSet
Validated: 1
EndChar

StartChar: bar
Encoding: 124 124 95
Width: 280
GlyphClass: 2
Flags: W
LayerCount: 2
Fore
SplineSet
101 750 m 1,0,-1
 180 750 l 1,1,-1
 180 -122 l 1,2,-1
 101 -122 l 1,3,-1
 101 750 l 1,0,-1
EndSplineSet
Validated: 1
EndChar

StartChar: braceright
Encoding: 125 125 96
Width: 349
GlyphClass: 2
Flags: W
LayerCount: 2
Fore
SplineSet
195 307 m 1,0,1
 143 334 143 334 143 420 c 2,2,-1
 143 512 l 2,3,4
 143 594 143 594 112.5 636.5 c 128,-1,5
 82 679 82 679 8 679 c 1,6,-1
 8 748 l 1,7,8
 221 748 221 748 221 513 c 2,9,-1
 221 422 l 2,10,11
 221 378 221 378 229.5 360.5 c 128,-1,12
 238 343 238 343 257 343 c 2,13,-1
 274 343 l 1,14,-1
 274 267 l 1,15,-1
 257 267 l 2,16,17
 238 267 238 267 229.5 249 c 128,-1,18
 221 231 221 231 221 188 c 2,19,-1
 221 96 l 2,20,21
 221 -72 221 -72 107 -120 c 0,22,23
 66 -138 66 -138 8 -138 c 1,24,-1
 8 -69 l 1,25,26
 82 -69 82 -69 112.5 -26.5 c 128,-1,27
 143 16 143 16 143 97 c 2,28,-1
 143 190 l 2,29,30
 143 278 143 278 195 303 c 1,31,-1
 195 307 l 1,0,1
EndSplineSet
Validated: 1
EndChar

StartChar: asciitilde
Encoding: 126 126 97
Width: 515
GlyphClass: 2
Flags: W
LayerCount: 2
Fore
SplineSet
158 282 m 0,0,1
 121 282 121 282 97 223 c 1,2,-1
 53 246 l 1,3,4
 86 357 86 357 160 357 c 0,5,6
 194 357 194 357 261 329.5 c 128,-1,7
 328 302 328 302 354 302 c 0,8,9
 394 302 394 302 419 359 c 1,10,-1
 462 332 l 1,11,12
 427 226 427 226 349 226 c 0,13,14
 326 226 326 226 278 244 c 128,-1,15
 230 262 230 262 216 268 c 0,16,17
 177 282 177 282 158 282 c 0,0,1
EndSplineSet
Validated: 1
EndChar

StartChar: sterling
Encoding: 163 163 98
Width: 565
GlyphClass: 2
Flags: W
LayerCount: 2
Fore
SplineSet
400 490 m 1,0,1
 384 568 384 568 298 568 c 0,2,3
 256 568 256 568 227.5 536 c 128,-1,4
 199 504 199 504 199 432 c 2,5,-1
 199 323 l 1,6,-1
 381 323 l 1,7,-1
 381 267 l 1,8,-1
 199 267 l 1,9,-1
 199 163 l 2,10,11
 199 95 199 95 162 69 c 1,12,-1
 345 69 l 2,13,14
 394 69 394 69 416.5 89.5 c 128,-1,15
 439 110 439 110 445 154 c 1,16,-1
 529 154 l 1,17,18
 523 77 523 77 481 38.5 c 128,-1,19
 439 0 439 0 345 0 c 2,20,-1
 20 0 l 1,21,-1
 20 69 l 1,22,-1
 48 69 l 2,23,24
 86 69 86 69 103.5 91 c 128,-1,25
 121 113 121 113 121 159 c 2,26,-1
 121 267 l 1,27,-1
 30 267 l 1,28,-1
 30 323 l 1,29,-1
 121 323 l 1,30,-1
 121 432 l 2,31,32
 121 531 121 531 167.5 585.5 c 128,-1,33
 214 640 214 640 305 640 c 0,34,35
 376 640 376 640 421 602 c 128,-1,36
 466 564 466 564 477 490 c 1,37,-1
 400 490 l 1,0,1
EndSplineSet
Validated: 1
EndChar

StartChar: dieresis
Encoding: 168 168 99
Width: 323
GlyphClass: 2
Flags: W
LayerCount: 2
Fore
SplineSet
38.5 793.5 m 128,-1,1
 24 808 24 808 24 829 c 128,-1,2
 24 850 24 850 38.5 864.5 c 128,-1,3
 53 879 53 879 76 879 c 256,4,5
 99 879 99 879 114.5 864.5 c 128,-1,6
 130 850 130 850 130 829 c 128,-1,7
 130 808 130 808 114.5 793.5 c 128,-1,8
 99 779 99 779 76 779 c 256,9,0
 53 779 53 779 38.5 793.5 c 128,-1,1
207 793.5 m 128,-1,11
 192 808 192 808 192 829 c 128,-1,12
 192 850 192 850 207 864.5 c 128,-1,13
 222 879 222 879 244.5 879 c 128,-1,14
 267 879 267 879 282.5 864.5 c 128,-1,15
 298 850 298 850 298 829 c 128,-1,16
 298 808 298 808 282.5 793.5 c 128,-1,17
 267 779 267 779 244.5 779 c 128,-1,10
 222 779 222 779 207 793.5 c 128,-1,11
EndSplineSet
Validated: 1
EndChar

StartChar: acute
Encoding: 180 180 100
Width: 315
GlyphClass: 2
Flags: W
LayerCount: 2
Fore
SplineSet
290 790 m 1,0,-1
 46 677 l 1,1,-1
 23 727 l 1,2,-1
 258 860 l 1,3,-1
 290 790 l 1,0,-1
EndSplineSet
Validated: 1
EndChar

StartChar: dotlessi
Encoding: 305 305 147
Width: 280
GlyphClass: 2
Flags: W
LayerCount: 2
Fore
SplineSet
101 479 m 1,0,-1
 180 479 l 1,1,-1
 180 0 l 1,2,-1
 101 0 l 1,3,-1
 101 479 l 1,0,-1
EndSplineSet
Validated: 1
EndChar

StartChar: apostrophe
Encoding: 700 700 148
Width: 184
GlyphClass: 2
Flags: W
LayerCount: 2
Fore
SplineSet
73 538 m 128,-1,1
 58 551 58 551 58 573 c 128,-1,2
 58 595 58 595 73.5 610 c 128,-1,3
 89 625 89 625 117.5 625 c 128,-1,4
 146 625 146 625 165 602.5 c 128,-1,5
 184 580 184 580 184 546 c 128,-1,6
 184 512 184 512 162 476.5 c 128,-1,7
 140 441 140 441 95 419 c 1,8,-1
 36 448 l 1,9,10
 98 478 98 478 111 523 c 1,11,0
 88 525 88 525 73 538 c 128,-1,1
EndSplineSet
Validated: 1
EndChar

StartChar: circumflex
Encoding: 710 710 149
Width: 407
GlyphClass: 2
Flags: W
LayerCount: 2
Fore
SplineSet
383 716 m 1,0,-1
 333 677 l 1,1,-1
 204 785 l 1,2,-1
 74 677 l 1,3,-1
 24 716 l 1,4,-1
 204 872 l 1,5,-1
 383 716 l 1,0,-1
EndSplineSet
Validated: 1
EndChar

StartChar: tilde
Encoding: 732 732 150
Width: 366
GlyphClass: 2
Flags: W
LayerCount: 2
Fore
SplineSet
112 770 m 0,0,1
 80 770 80 770 55 719 c 1,2,-1
 23 738 l 1,3,4
 35 789 35 789 58 815.5 c 128,-1,5
 81 842 81 842 107 842 c 128,-1,6
 133 842 133 842 166 825 c 0,7,8
 213 802 213 802 226.5 796 c 128,-1,9
 240 790 240 790 253 790 c 128,-1,10
 266 790 266 790 280 802.5 c 128,-1,11
 294 815 294 815 304 842 c 1,12,-1
 339 819 l 1,13,14
 328 771 328 771 303.5 745 c 128,-1,15
 279 719 279 719 258.5 719 c 128,-1,16
 238 719 238 719 221 725 c 128,-1,17
 204 731 204 731 174 746.5 c 128,-1,18
 144 762 144 762 133.5 766 c 128,-1,19
 123 770 123 770 112 770 c 0,0,1
EndSplineSet
Validated: 1
EndChar

StartChar: endash
Encoding: 8211 8211 151
Width: 474
GlyphClass: 2
Flags: W
LayerCount: 2
Fore
SplineSet
55 325 m 1,0,-1
 419 325 l 1,1,-1
 419 257 l 1,2,-1
 55 257 l 1,3,-1
 55 325 l 1,0,-1
EndSplineSet
Validated: 1
EndChar

StartChar: emdash
Encoding: 8212 8212 152
Width: 726
GlyphClass: 2
Flags: W
LayerCount: 2
Fore
SplineSet
55 325 m 1,0,-1
 671 325 l 1,1,-1
 671 257 l 1,2,-1
 55 257 l 1,3,-1
 55 325 l 1,0,-1
EndSplineSet
Validated: 1
EndChar

StartChar: quoteleft
Encoding: 8216 8216 153
Width: 214
GlyphClass: 2
Flags: W
LayerCount: 2
Fore
SplineSet
146.5 433.5 m 128,-1,1
 131 418 131 418 103 418 c 128,-1,2
 75 418 75 418 55.5 441 c 128,-1,3
 36 464 36 464 36 498.5 c 128,-1,4
 36 533 36 533 59.5 568.5 c 128,-1,5
 83 604 83 604 128 626 c 1,6,-1
 184 597 l 1,7,8
 122 565 122 565 109 521 c 1,9,10
 132 519 132 519 147 506 c 128,-1,11
 162 493 162 493 162 471 c 256,12,0
 162 449 162 449 146.5 433.5 c 128,-1,1
EndSplineSet
Validated: 1
EndChar

StartChar: quoteright
Encoding: 8217 8217 154
Width: 214
GlyphClass: 2
Flags: W
LayerCount: 2
Fore
SplineSet
52 611 m 128,-1,1
 68 626 68 626 96.5 626 c 128,-1,2
 125 626 125 626 143.5 604 c 128,-1,3
 162 582 162 582 162 547 c 256,4,5
 162 512 162 512 138.5 476.5 c 128,-1,6
 115 441 115 441 71 418 c 1,7,-1
 15 448 l 1,8,9
 77 480 77 480 90 524 c 1,10,11
 67 526 67 526 51.5 539 c 128,-1,12
 36 552 36 552 36 574 c 256,13,0
 36 596 36 596 52 611 c 128,-1,1
EndSplineSet
Validated: 1
EndChar

StartChar: rupeesymbol
Encoding: 8377 8377 155
Width: 581
GlyphClass: 2
Flags: W
LayerCount: 2
Fore
SplineSet
92 629 m 1,0,-1
 508 629 l 1,1,-1
 508 580 l 1,2,-1
 325 580 l 1,3,4
 394 544 394 544 409 477 c 1,5,-1
 508 477 l 1,6,-1
 508 429 l 1,7,-1
 414 429 l 1,8,9
 407 314 407 314 295 270 c 0,10,11
 255 255 255 255 200 250 c 1,12,-1
 474 0 l 1,13,-1
 362 0 l 1,14,-1
 92 248 l 1,15,-1
 92 296 l 1,16,-1
 153 296 l 2,17,18
 240 296 240 296 282 334 c 128,-1,19
 324 372 324 372 327 429 c 1,20,-1
 92 429 l 1,21,-1
 92 477 l 1,22,-1
 323 477 l 1,23,24
 312 523 312 523 270.5 551.5 c 128,-1,25
 229 580 229 580 153 580 c 2,26,-1
 92 580 l 1,27,-1
 92 629 l 1,0,-1
EndSplineSet
Validated: 1
EndChar

StartChar: minus
Encoding: 8722 8722 156
Width: 488
GlyphClass: 2
Flags: W
LayerCount: 2
Fore
SplineSet
409 325 m 1,0,-1
 409 258 l 1,1,-1
 79 258 l 1,2,-1
 79 325 l 1,3,-1
 409 325 l 1,0,-1
EndSplineSet
Validated: 1
EndChar

StartChar: zero.propold
Encoding: 1114115 -1 157
Width: 531
GlyphClass: 2
Flags: W
LayerCount: 2
Fore
SplineSet
265.5 551 m 128,-1,1
 364 551 364 551 422.5 478 c 128,-1,2
 481 405 481 405 481 270 c 256,3,4
 481 135 481 135 422.5 62 c 128,-1,5
 364 -11 364 -11 265.5 -11 c 128,-1,6
 167 -11 167 -11 109 61.5 c 128,-1,7
 51 134 51 134 51 270 c 256,8,9
 51 406 51 406 109 478.5 c 128,-1,0
 167 551 167 551 265.5 551 c 128,-1,1
400 270 m 0,10,11
 400 482 400 482 266 482 c 256,12,13
 132 482 132 482 132 270 c 0,14,15
 132 59 132 59 266 59 c 256,16,17
 400 59 400 59 400 270 c 0,10,11
EndSplineSet
Validated: 1
EndChar

StartChar: one.propold
Encoding: 1114116 -1 158
Width: 331
GlyphClass: 2
Flags: W
LayerCount: 2
Fore
SplineSet
49 489 m 1,0,1
 118 500 118 500 166 541 c 1,2,-1
 230 541 l 1,3,-1
 230 0 l 1,4,-1
 152 0 l 1,5,-1
 152 446 l 1,6,7
 101 414 101 414 49 412 c 1,8,-1
 49 489 l 1,0,1
EndSplineSet
Validated: 1
EndChar

StartChar: two.propold
Encoding: 1114117 -1 159
Width: 575
GlyphClass: 2
Flags: W
LayerCount: 2
Fore
SplineSet
143 73 m 1,0,-1
 500 73 l 1,1,-1
 500 0 l 1,2,-1
 64 0 l 1,3,-1
 64 84 l 2,4,5
 64 164 64 164 101 205.5 c 128,-1,6
 138 247 138 247 214 264 c 2,7,-1
 317 289 l 2,8,9
 370 301 370 301 395.5 325 c 128,-1,10
 421 349 421 349 421 388 c 128,-1,11
 421 427 421 427 389 454 c 128,-1,12
 357 481 357 481 299 481 c 128,-1,13
 241 481 241 481 204.5 458 c 128,-1,14
 168 435 168 435 162 388 c 1,15,-1
 75 388 l 1,16,17
 80 466 80 466 138 508.5 c 128,-1,18
 196 551 196 551 290.5 551 c 128,-1,19
 385 551 385 551 443 502.5 c 128,-1,20
 501 454 501 454 501 388 c 128,-1,21
 501 322 501 322 464 285.5 c 128,-1,22
 427 249 427 249 351 231 c 2,23,-1
 240 204 l 2,24,25
 143 182 143 182 143 105 c 2,26,-1
 143 73 l 1,0,-1
EndSplineSet
Validated: 1
EndChar

StartChar: three.propold
Encoding: 1114118 -1 160
Width: 562
GlyphClass: 2
Flags: W
LayerCount: 2
Fore
SplineSet
260 483 m 0,0,1
 150 483 150 483 129 390 c 1,2,-1
 46 390 l 1,3,4
 68 551 68 551 259 551 c 0,5,6
 352 551 352 551 410 504.5 c 128,-1,7
 468 458 468 458 468 384 c 0,8,9
 468 333 468 333 439.5 302 c 128,-1,10
 411 271 411 271 360 252 c 1,11,12
 421 232 421 232 457 184.5 c 128,-1,13
 493 137 493 137 493 74 c 0,14,15
 493 -8 493 -8 428.5 -61 c 128,-1,16
 364 -114 364 -114 262 -114 c 128,-1,17
 160 -114 160 -114 94 -62 c 128,-1,18
 28 -10 28 -10 28 88 c 1,19,-1
 108 88 l 1,20,21
 110 19 110 19 151.5 -13.5 c 128,-1,22
 193 -46 193 -46 258.5 -46 c 128,-1,23
 324 -46 324 -46 368 -10.5 c 128,-1,24
 412 25 412 25 412 79 c 0,25,26
 412 167 412 167 323 200 c 0,27,28
 293 211 293 211 251 211 c 2,29,-1
 190 211 l 1,30,-1
 190 274 l 1,31,-1
 233 274 l 2,32,33
 305 274 305 274 346.5 300 c 128,-1,34
 388 326 388 326 388 375 c 128,-1,35
 388 424 388 424 354 453.5 c 128,-1,36
 320 483 320 483 260 483 c 0,0,1
EndSplineSet
Validated: 1
EndChar

StartChar: four.propold
Encoding: 1114119 -1 161
Width: 560
GlyphClass: 2
Flags: W
LayerCount: 2
Fore
SplineSet
427 546 m 1,0,-1
 427 121 l 1,1,-1
 536 121 l 1,2,-1
 536 54 l 1,3,-1
 427 54 l 1,4,-1
 427 -105 l 1,5,-1
 349 -105 l 1,6,-1
 349 54 l 1,7,-1
 24 54 l 1,8,-1
 24 115 l 1,9,-1
 353 546 l 1,10,-1
 427 546 l 1,0,-1
112 115 m 1,11,-1
 351 115 l 1,12,-1
 351 422 l 1,13,-1
 112 115 l 1,11,-1
EndSplineSet
Validated: 1
EndChar

StartChar: five.propold
Encoding: 1114120 -1 162
Width: 569
GlyphClass: 2
Flags: W
LayerCount: 2
Fore
SplineSet
187 296 m 1,0,1
 233 306 233 306 281 306 c 0,2,3
 386 306 386 306 446 253 c 128,-1,4
 506 200 506 200 506 106 c 128,-1,5
 506 12 506 12 439 -51 c 128,-1,6
 372 -114 372 -114 277 -114 c 128,-1,7
 182 -114 182 -114 123.5 -64 c 128,-1,8
 65 -14 65 -14 65 75 c 1,9,-1
 142 75 l 1,10,11
 142 18 142 18 177 -12 c 128,-1,12
 212 -42 212 -42 275 -42 c 128,-1,13
 338 -42 338 -42 382 0 c 128,-1,14
 426 42 426 42 426 105.5 c 128,-1,15
 426 169 426 169 385.5 205 c 128,-1,16
 345 241 345 241 266 241 c 2,17,-1
 104 241 l 1,18,-1
 132 545 l 1,19,-1
 477 545 l 1,20,-1
 477 474 l 1,21,-1
 205 474 l 1,22,-1
 187 296 l 1,0,1
EndSplineSet
Validated: 1
EndChar

StartChar: six.propold
Encoding: 1114121 -1 163
Width: 573
GlyphClass: 2
Flags: W
LayerCount: 2
Fore
SplineSet
425 470 m 1,0,1
 408 568 408 568 318 568 c 128,-1,2
 228 568 228 568 179.5 494 c 128,-1,3
 131 420 131 420 131 292 c 0,4,5
 131 239 131 239 136 204 c 1,6,7
 142 296 142 296 192.5 337.5 c 128,-1,8
 243 379 243 379 322 379 c 128,-1,9
 401 379 401 379 458 323.5 c 128,-1,10
 515 268 515 268 515 181.5 c 128,-1,11
 515 95 515 95 456 41.5 c 128,-1,12
 397 -12 397 -12 301 -12 c 0,13,14
 189 -12 189 -12 120 78 c 128,-1,15
 51 168 51 168 51 314.5 c 128,-1,16
 51 461 51 461 121 550.5 c 128,-1,17
 191 640 191 640 312 640 c 0,18,19
 396 640 396 640 449 593 c 128,-1,20
 502 546 502 546 510 470 c 1,21,-1
 425 470 l 1,0,1
207.5 273.5 m 128,-1,23
 170 238 170 238 170 183 c 128,-1,24
 170 128 170 128 207 94.5 c 128,-1,25
 244 61 244 61 301 61 c 128,-1,26
 358 61 358 61 395.5 94 c 128,-1,27
 433 127 433 127 433 185 c 256,28,29
 433 243 433 243 395.5 276 c 128,-1,30
 358 309 358 309 301.5 309 c 128,-1,22
 245 309 245 309 207.5 273.5 c 128,-1,23
EndSplineSet
Validated: 1
EndChar

StartChar: seven.propold
Encoding: 1114122 -1 164
Width: 470
GlyphClass: 2
Flags: W
LayerCount: 2
Fore
SplineSet
452 551 m 1,0,-1
 452 484 l 1,1,-1
 152 -98 l 1,2,-1
 55 -98 l 1,3,-1
 369 481 l 1,4,-1
 24 481 l 1,5,-1
 24 551 l 1,6,-1
 452 551 l 1,0,-1
EndSplineSet
Validated: 1
EndChar

StartChar: eight.propold
Encoding: 1114123 -1 165
Width: 615
GlyphClass: 2
Flags: W
LayerCount: 2
Fore
SplineSet
201 318 m 1,0,1
 76 375 76 375 76 473 c 0,2,3
 76 548 76 548 138 594 c 128,-1,4
 200 640 200 640 302.5 640 c 128,-1,5
 405 640 405 640 471 591 c 128,-1,6
 537 542 537 542 537 465 c 0,7,8
 537 413 537 413 502.5 372 c 128,-1,9
 468 331 468 331 401 321 c 1,10,-1
 418 315 l 2,11,12
 487 289 487 289 524 253.5 c 128,-1,13
 561 218 561 218 561 157 c 0,14,15
 561 81 561 81 493.5 35 c 128,-1,16
 426 -11 426 -11 311.5 -11 c 128,-1,17
 197 -11 197 -11 126 40 c 128,-1,18
 55 91 55 91 55 168 c 0,19,20
 55 230 55 230 95.5 269 c 128,-1,21
 136 308 136 308 201 318 c 1,0,1
276 289 m 1,22,23
 213 282 213 282 175 249.5 c 128,-1,24
 137 217 137 217 137 169 c 128,-1,25
 137 121 137 121 185 91 c 128,-1,26
 233 61 233 61 310.5 61 c 128,-1,27
 388 61 388 61 433.5 87 c 128,-1,28
 479 113 479 113 479 150 c 128,-1,29
 479 187 479 187 455 209.5 c 128,-1,30
 431 232 431 232 389 247 c 2,31,-1
 276 289 l 1,22,23
159 463 m 0,32,33
 159 436 159 436 181 416.5 c 128,-1,34
 203 397 203 397 244 381 c 2,35,-1
 317 353 l 1,36,37
 377 355 377 355 416 384.5 c 128,-1,38
 455 414 455 414 455 461.5 c 128,-1,39
 455 509 455 509 414 538.5 c 128,-1,40
 373 568 373 568 308 568 c 128,-1,41
 243 568 243 568 201 539.5 c 128,-1,42
 159 511 159 511 159 463 c 0,32,33
EndSplineSet
Validated: 1
EndChar

StartChar: nine.propold
Encoding: 1114124 -1 166
Width: 580
GlyphClass: 2
Flags: W
LayerCount: 2
Fore
SplineSet
286 551 m 0,0,1
 339 551 339 551 385.5 525.5 c 128,-1,2
 432 500 432 500 464 456 c 0,3,4
 530 367 530 367 530 217 c 128,-1,5
 530 67 530 67 465 -23.5 c 128,-1,6
 400 -114 400 -114 281 -114 c 0,7,8
 188 -114 188 -114 129 -58.5 c 128,-1,9
 70 -3 70 -3 70 83 c 1,10,-1
 153 83 l 1,11,12
 155 26 155 26 187.5 -8 c 128,-1,13
 220 -42 220 -42 272.5 -42 c 128,-1,14
 325 -42 325 -42 356 -22 c 0,15,16
 449 35 449 35 449 238 c 0,17,18
 449 283 449 283 444 318 c 1,19,20
 436 241 436 241 389 198.5 c 128,-1,21
 342 156 342 156 263.5 156 c 128,-1,22
 185 156 185 156 125.5 212 c 128,-1,23
 66 268 66 268 66 354 c 0,24,25
 66 441 66 441 125 496 c 128,-1,26
 184 551 184 551 286 551 c 0,0,1
279 481 m 256,27,28
 219 481 219 481 183.5 446.5 c 128,-1,29
 148 412 148 412 148 353.5 c 128,-1,30
 148 295 148 295 184 260.5 c 128,-1,31
 220 226 220 226 278.5 226 c 128,-1,32
 337 226 337 226 374 263 c 128,-1,33
 411 300 411 300 411 356 c 128,-1,34
 411 412 411 412 375 446.5 c 128,-1,35
 339 481 339 481 279 481 c 256,27,28
EndSplineSet
Validated: 1
EndChar

StartChar: macron
Encoding: 175 175 178
Width: 380
Flags: W
LayerCount: 2
Fore
SplineSet
56 629 m 1,0,-1
 328 629 l 1,1,-1
 328 561 l 1,2,-1
 56 561 l 1,3,-1
 56 629 l 1,0,-1
EndSplineSet
Validated: 1
EndChar

StartChar: guillemotleft
Encoding: 171 171 180
Width: 470
Flags: W
LayerCount: 2
Fore
SplineSet
182 429 m 1,0,-1
 266 429 l 1,1,-1
 128 233 l 1,2,-1
 266 37 l 1,3,-1
 182 37 l 1,4,-1
 36 233 l 1,5,-1
 182 429 l 1,0,-1
354 429 m 1,6,-1
 440 429 l 1,7,-1
 302 233 l 1,8,-1
 440 37 l 1,9,-1
 354 37 l 1,10,-1
 208 233 l 1,11,-1
 354 429 l 1,6,-1
EndSplineSet
Validated: 1
EndChar

StartChar: guillemotright
Encoding: 187 187 181
Width: 470
Flags: W
LayerCount: 2
Fore
SplineSet
294 429 m 1,0,-1
 208 429 l 1,1,-1
 346 233 l 1,2,-1
 208 37 l 1,3,-1
 294 37 l 1,4,-1
 440 233 l 1,5,-1
 294 429 l 1,0,-1
120 429 m 1,6,-1
 36 429 l 1,7,-1
 174 233 l 1,8,-1
 36 37 l 1,9,-1
 120 37 l 1,10,-1
 266 233 l 1,11,-1
 120 429 l 1,6,-1
EndSplineSet
Validated: 9
EndChar

StartChar: uni203D
Encoding: 8253 8253 183
Width: 499
Flags: W
LayerCount: 2
Fore
SplineSet
167 499 m 1,0,-1
 262 499 l 1,1,2
 260 428 260 428 258 356 c 1,3,4
 266 361 266 361 274 366 c 0,5,6
 329 396 329 396 348 418.5 c 128,-1,7
 367 441 367 441 367 479 c 128,-1,8
 367 517 367 517 335.5 542.5 c 128,-1,9
 304 568 304 568 248 568 c 0,10,11
 131 568 131 568 114 476 c 1,12,-1
 30 476 l 1,13,14
 37 550 37 550 91 595 c 128,-1,15
 145 640 145 640 242.5 640 c 128,-1,16
 340 640 340 640 396.5 592 c 128,-1,17
 453 544 453 544 453 475 c 0,18,19
 453 423 453 423 427 388.5 c 128,-1,20
 401 354 401 354 343 322 c 0,21,22
 318 308 318 308 301 297 c 128,-1,23
 284 286 284 286 274 272 c 0,24,25
 255 247 255 247 255 200 c 2,26,-1
 255 161 l 1,27,-1
 253 161 l 1,28,-1
 177 161 l 1,29,-1
 167 499 l 1,0,-1
217 102 m 128,-1,31
 243 102 243 102 260 85 c 128,-1,32
 277 68 277 68 277 44.5 c 128,-1,33
 277 21 277 21 260 5 c 128,-1,34
 243 -11 243 -11 217 -11 c 128,-1,35
 191 -11 191 -11 175 5 c 128,-1,36
 159 21 159 21 159 44.5 c 128,-1,37
 159 68 159 68 175 85 c 128,-1,30
 191 102 191 102 217 102 c 128,-1,31
EndSplineSet
Validated: 1
EndChar

StartChar: Euro
Encoding: 8364 8364 184
Width: 612
Flags: W
LayerCount: 2
Fore
SplineSet
337 640 m 0,0,1
 438 640 438 640 495 589.5 c 128,-1,2
 552 539 552 539 575 458 c 1,3,-1
 490 441 l 1,4,5
 470 500 470 500 432 534.5 c 128,-1,6
 394 569 394 569 337 569 c 0,7,8
 270 569 270 569 218 501 c 0,9,10
 186 459 186 459 173 397 c 1,11,-1
 444 397 l 1,12,-1
 422 331 l 1,13,-1
 166 331 l 1,14,15
 166 324 166 324 166 316 c 0,16,17
 166 294 166 294 167 274 c 1,18,-1
 403 274 l 1,19,-1
 381 208 l 1,20,-1
 177 208 l 1,21,22
 188 163 188 163 209 129 c 0,23,24
 253 60 253 60 331 60 c 0,25,26
 403 60 403 60 446.5 99.5 c 128,-1,27
 490 139 490 139 490 204 c 1,28,-1
 575 204 l 1,29,30
 575 105 575 105 507.5 47 c 128,-1,31
 440 -11 440 -11 330 -11 c 128,-1,32
 220 -11 220 -11 150 77 c 0,33,34
 108 131 108 131 92 208 c 1,35,-1
 12 208 l 1,36,-1
 34 274 l 1,37,-1
 82 274 l 1,38,39
 81 294 81 294 81 316 c 0,40,41
 81 324 81 324 81 331 c 1,42,-1
 12 331 l 1,43,-1
 34 397 l 1,44,-1
 87 397 l 1,45,46
 102 492 102 492 156 553 c 0,47,48
 231 640 231 640 337 640 c 0,0,1
EndSplineSet
Validated: 1
EndChar

StartChar: cedilla
Encoding: 184 184 192
Width: 682
Flags: W
LayerCount: 2
Fore
SplineSet
366 -104 m 0,0,1
 366 -178 366 -178 254 -178 c 0,2,3
 231 -178 231 -178 217 -176 c 1,4,-1
 217 -136 l 1,5,6
 237 -138 237 -138 252 -138 c 0,7,8
 312 -138 312 -138 312 -105 c 0,9,10
 312 -74 312 -74 258 -74 c 0,11,12
 240 -74 240 -74 235 -74 c 1,13,-1
 261 0 l 1,14,-1
 305 0 l 1,15,-1
 289 -41 l 1,16,17
 328 -42 328 -42 347 -58.5 c 128,-1,18
 366 -75 366 -75 366 -104 c 0,0,1
EndSplineSet
Validated: 1
EndChar

StartChar: multiply
Encoding: 215 215 193
Width: 512
Flags: W
LayerCount: 2
Fore
SplineSet
434 507 m 1,0,-1
 486 455 l 1,1,-1
 308 277 l 1,2,-1
 486 99 l 1,3,-1
 434 47 l 1,4,-1
 256 225 l 1,5,-1
 78 47 l 1,6,-1
 26 99 l 1,7,-1
 204 277 l 1,8,-1
 26 455 l 1,9,-1
 78 507 l 1,10,-1
 256 329 l 1,11,-1
 434 507 l 1,0,-1
EndSplineSet
Validated: 1
EndChar

StartChar: ccedilla
Encoding: 231 231 194
Width: 489
Flags: W
LayerCount: 2
Fore
SplineSet
351 -109 m 0,0,1
 351 -183 351 -183 239 -183 c 0,2,3
 216 -183 216 -183 202 -181 c 1,4,-1
 202 -141 l 1,5,6
 222 -143 222 -143 237 -143 c 0,7,8
 297 -143 297 -143 297 -110 c 0,9,10
 297 -79 297 -79 243 -79 c 0,11,12
 225 -79 225 -79 220 -80 c 1,13,-1
 245 -10 l 1,14,15
 169 -2 169 -2 114 58 c 0,16,17
 50 127 50 127 50 241.5 c 128,-1,18
 50 356 50 356 113 423 c 128,-1,19
 176 490 176 490 260.5 490 c 128,-1,20
 345 490 345 490 395 446.5 c 128,-1,21
 445 403 445 403 460 338 c 1,22,-1
 380 331 l 1,23,24
 367 373 367 373 338 396.5 c 128,-1,25
 309 420 309 420 274 420 c 0,26,27
 210 420 210 420 170.5 372 c 128,-1,28
 131 324 131 324 131 241.5 c 128,-1,29
 131 159 131 159 169.5 109 c 128,-1,30
 208 59 208 59 265.5 59 c 128,-1,31
 323 59 323 59 351.5 85.5 c 128,-1,32
 380 112 380 112 380 161 c 1,33,-1
 461 161 l 1,34,35
 461 84 461 84 407 36 c 0,36,37
 360 -5 360 -5 288 -10 c 1,38,-1
 274 -46 l 1,39,40
 313 -47 313 -47 332 -63.5 c 128,-1,41
 351 -80 351 -80 351 -109 c 0,0,1
EndSplineSet
Validated: 1
EndChar

StartChar: oe
Encoding: 339 339 197
Width: 876
Flags: W
LayerCount: 2
Fore
SplineSet
380 374 m 0,0,1
 344 422 344 422 274.5 422 c 128,-1,2
 205 422 205 422 168 373.5 c 128,-1,3
 131 325 131 325 131 239.5 c 128,-1,4
 131 154 131 154 166 105.5 c 128,-1,5
 201 57 201 57 270.5 57 c 128,-1,6
 340 57 340 57 378 106 c 0,7,8
 414 152 414 152 416 232 c 0,9,10
 416 237 416 237 416 243 c 0,11,12
 416 247 416 247 416 251 c 0,13,14
 414 328 414 328 380 374 c 0,0,1
273 490 m 128,-1,16
 373 490 373 490 434 425 c 0,17,18
 446 413 446 413 456 398 c 1,19,20
 465 413 465 413 476 426 c 0,21,22
 537 494 537 494 637.5 494 c 128,-1,23
 738 494 738 494 787.5 416 c 128,-1,24
 837 338 837 338 822 226 c 1,25,-1
 496 226 l 1,26,27
 496 218 496 218 495 211 c 0,28,29
 498 147 498 147 531 104 c 0,30,31
 566 56 566 56 632 56 c 0,32,33
 731 56 731 56 745 144 c 1,34,-1
 826 144 l 1,35,36
 815 72 815 72 762.5 32 c 128,-1,37
 710 -8 710 -8 632 -8 c 0,38,39
 536 -8 536 -8 476 61 c 0,40,41
 466 72 466 72 458 84 c 1,42,43
 447 68 447 68 434 54 c 0,44,45
 373 -11 373 -11 273 -11 c 128,-1,46
 173 -11 173 -11 111.5 54 c 128,-1,47
 50 119 50 119 50 239 c 0,48,49
 50 360 50 360 111.5 425 c 128,-1,15
 173 490 173 490 273 490 c 128,-1,16
689 418 m 0,50,51
 667 430 667 430 634 430 c 0,52,53
 572 430 572 430 537 389 c 128,-1,54
 502 348 502 348 496 286 c 1,55,-1
 751 286 l 1,56,57
 751 386 751 386 689 418 c 0,50,51
EndSplineSet
Validated: 33
EndChar

StartChar: uni0237
Encoding: 567 567 226
Width: 307
Flags: W
LayerCount: 2
Fore
SplineSet
26.6708984375 -177 m 0,0,1
 114.670898438 -177 114.670898438 -177 114.670898438 -67 c 2,2,-1
 114.670898438 480 l 1,3,-1
 193.670898438 480 l 1,4,-1
 193.670898438 -67 l 2,5,6
 193.670898438 -204 193.670898438 -204 103.670898438 -236 c 0,7,8
 75.6708984375 -246 75.6708984375 -246 41.6708984375 -246 c 0,9,10
 -20.3291015625 -246 -20.3291015625 -246 -92.3291015625 -209 c 1,11,-1
 -88.3291015625 -140 l 1,12,13
 -25.3291015625 -177 -25.3291015625 -177 26.6708984375 -177 c 0,0,1
EndSplineSet
Validated: 1
EndChar

StartChar: ring
Encoding: 730 730 269
Width: 434
Flags: W
LayerCount: 2
Fore
SplineSet
287 689 m 128,-1,1
 287 640 287 640 252.5 605.5 c 128,-1,2
 218 571 218 571 169 571 c 128,-1,3
 120 571 120 571 85.5 605.5 c 128,-1,4
 51 640 51 640 51 689 c 256,5,6
 51 738 51 738 85.5 772 c 128,-1,7
 120 806 120 806 169 806 c 0,8,9
 217 806 217 806 252 772 c 128,-1,0
 287 738 287 738 287 689 c 128,-1,1
235 688.5 m 128,-1,11
 235 716 235 716 215.5 735 c 128,-1,12
 196 754 196 754 169 754 c 0,13,14
 141 754 141 754 122 735 c 128,-1,15
 103 716 103 716 103 689 c 256,16,17
 103 662 103 662 121.5 642 c 128,-1,18
 140 622 140 622 169 622 c 0,19,20
 197 622 197 622 216 641.5 c 128,-1,10
 235 661 235 661 235 688.5 c 128,-1,11
EndSplineSet
Validated: 1
EndChar

StartChar: degree
Encoding: 176 176 270
Width: 434
Flags: W
LayerCount: 2
Fore
SplineSet
287 689 m 128,-1,1
 287 640 287 640 252.5 605.5 c 128,-1,2
 218 571 218 571 169 571 c 128,-1,3
 120 571 120 571 85.5 605.5 c 128,-1,4
 51 640 51 640 51 689 c 256,5,6
 51 738 51 738 85.5 772 c 128,-1,7
 120 806 120 806 169 806 c 0,8,9
 217 806 217 806 252 772 c 128,-1,0
 287 738 287 738 287 689 c 128,-1,1
235 688.5 m 128,-1,11
 235 716 235 716 215.5 735 c 128,-1,12
 196 754 196 754 169 754 c 0,13,14
 141 754 141 754 122 735 c 128,-1,15
 103 716 103 716 103 689 c 256,16,17
 103 662 103 662 121.5 642 c 128,-1,18
 140 622 140 622 169 622 c 0,19,20
 197 622 197 622 216 641.5 c 128,-1,10
 235 661 235 661 235 688.5 c 128,-1,11
EndSplineSet
Validated: 1
EndChar

StartChar: breve
Encoding: 728 728 273
Width: 434
Flags: W
LayerCount: 2
Fore
SplineSet
287 689 m 0,0,1
 287 640 287 640 252.5 605.5 c 128,-1,2
 218 571 218 571 169 571 c 128,-1,3
 120 571 120 571 85.5 605.5 c 128,-1,4
 51 640 51 640 51 689 c 256,5,-1
 103 689 l 256,6,7
 103 662 103 662 121.5 642 c 128,-1,8
 140 622 140 622 169 622 c 0,9,10
 197 622 197 622 216 641.5 c 128,-1,11
 235 661 235 661 235 688.5 c 0,12,-1
 287 689 l 0,0,1
EndSplineSet
Validated: 1
EndChar

StartChar: copyright
Encoding: 169 169 312
Width: 742
Flags: W
LayerCount: 2
Fore
SplineSet
100.5703125 314.719726562 m 0,0,1
 100.5703125 240.014648438 100.5703125 240.014648438 135.309570312 176.400390625 c 128,-1,2
 170.049804688 112.770507812 170.049804688 112.770507812 229.76953125 76.73046875 c 128,-1,3
 289.494140625 40.6796875 289.494140625 40.6796875 358.969726562 40.6796875 c 128,-1,4
 428.450195312 40.6796875 428.450195312 40.6796875 487.959960938 76.73046875 c 128,-1,5
 547.450195312 112.774414062 547.450195312 112.774414062 582.200195312 176.400390625 c 128,-1,6
 616.940429688 240.030273438 616.940429688 240.030273438 616.940429688 314.719726562 c 0,7,8
 616.940429688 388.55078125 616.940429688 388.55078125 582.629882812 451.51953125 c 128,-1,9
 548.32421875 514.490234375 548.32421875 514.490234375 488.610351562 550.759765625 c 128,-1,10
 428.913085938 587.01953125 428.913085938 587.01953125 358.969726562 587.01953125 c 0,11,12
 289.490234375 587.01953125 289.490234375 587.01953125 229.549804688 551.190429688 c 128,-1,13
 169.609375 515.354492188 169.609375 515.354492188 135.08984375 451.950195312 c 128,-1,14
 100.5703125 388.551757812 100.5703125 388.551757812 100.5703125 314.719726562 c 0,0,1
50.6298828125 314.719726562 m 0,15,16
 50.6298828125 402.440429688 50.6298828125 402.440429688 91.240234375 477.580078125 c 128,-1,17
 131.84375 552.71484375 131.84375 552.71484375 203.719726562 595.9296875 c 128,-1,18
 275.599609375 639.145507812 275.599609375 639.145507812 358.98046875 639.139648438 c 128,-1,19
 442.365234375 639.139648438 442.365234375 639.139648438 514.01953125 595.9296875 c 128,-1,20
 585.67578125 552.71484375 585.67578125 552.71484375 626.280273438 477.580078125 c 128,-1,21
 666.884765625 402.4453125 666.884765625 402.4453125 666.889648438 314.719726562 c 0,22,23
 666.889648438 229.16015625 666.889648438 229.16015625 627.799804688 154.469726562 c 128,-1,24
 588.7109375 79.76953125 588.7109375 79.76953125 516.83984375 34.3896484375 c 128,-1,25
 444.974609375 -11 444.974609375 -11 358.98046875 -11 c 0,26,27
 273.422851562 -11 273.422851562 -11 201.549804688 33.9501953125 c 128,-1,28
 129.669921875 78.904296875 129.669921875 78.904296875 90.150390625 153.599609375 c 128,-1,29
 50.6298828125 228.291015625 50.6298828125 228.291015625 50.6298828125 314.719726562 c 0,15,16
444.110351562 249.330078125 m 0,30,-1
 499.620117188 249.349609375 l 1,31,32
 499.379882812 191.209960938 499.379882812 191.209960938 459.650390625 157.0703125 c 0,33,34
 419.674804688 122.719726562 419.674804688 122.719726562 350.08984375 122.719726562 c 128,-1,35
 280.490234375 122.719726562 280.490234375 122.719726562 237.559570312 176.01953125 c 128,-1,36
 194.615234375 229.314453125 194.615234375 229.314453125 194.620117188 318.75 c 128,-1,37
 194.620117188 408.1796875 194.620117188 408.1796875 239.040039062 458.219726562 c 128,-1,38
 283.455078125 508.259765625 283.455078125 508.259765625 353.33984375 508.259765625 c 0,39,40
 413.16015625 508.259765625 413.16015625 508.259765625 449.580078125 478.349609375 c 128,-1,41
 486 448.440429688 486 448.440429688 499.620117188 400.469726562 c 0,42,-1
 444.940429688 388.830078125 l 1,43,44
 435.821289062 417.120117188 435.821289062 417.120117188 414.349609375 434.75 c 0,45,46
 393.274414062 452.049804688 393.274414062 452.049804688 353.330078125 452.049804688 c 0,47,48
 308.41015625 452.049804688 308.41015625 452.049804688 280.540039062 420.66015625 c 0,49,50
 250.110351562 386.373046875 250.110351562 386.373046875 250.110351562 318.030273438 c 0,51,52
 250.110351562 248.180664062 250.110351562 248.180664062 280.76953125 210.120117188 c 0,53,54
 307.04296875 177.5 307.04296875 177.5 350.0703125 177.5 c 0,55,56
 399.100585938 177.5 399.100585938 177.5 423.459960938 198.440429688 c 0,57,58
 444.110351562 216.170898438 444.110351562 216.170898438 444.110351562 249.330078125 c 0,30,-1
EndSplineSet
Validated: 33
EndChar

StartChar: registered
Encoding: 174 174 313
Width: 750
Flags: W
LayerCount: 2
Fore
SplineSet
634.344726562 477.360351562 m 128,-1,1
 674.94921875 402.240234375 674.94921875 402.240234375 674.96484375 314.490234375 c 0,2,3
 674.96484375 228.9453125 674.96484375 228.9453125 635.874023438 154.240234375 c 128,-1,4
 596.78515625 79.541015625 596.78515625 79.541015625 524.9140625 34.16015625 c 128,-1,5
 453.034179688 -11.21484375 453.034179688 -11.21484375 367.044921875 -11.2197265625 c 0,6,7
 281.484375 -11.2197265625 281.484375 -11.2197265625 209.614257812 33.73046875 c 128,-1,8
 137.734375 78.685546875 137.734375 78.685546875 98.21484375 153.379882812 c 128,-1,9
 58.6943359375 228.069335938 58.6943359375 228.069335938 58.6943359375 314.5 c 0,10,11
 58.6943359375 402.235351562 58.6943359375 402.235351562 99.294921875 477.360351562 c 128,-1,12
 139.8984375 552.495117188 139.8984375 552.495117188 211.774414062 595.709960938 c 128,-1,13
 283.654296875 638.91015625 283.654296875 638.91015625 367.034179688 638.919921875 c 128,-1,14
 450.418945312 638.919921875 450.418945312 638.919921875 522.07421875 595.709960938 c 128,-1,0
 593.744140625 552.49609375 593.744140625 552.49609375 634.344726562 477.360351562 c 128,-1,1
590.264648438 176.1796875 m 128,-1,16
 625.014648438 239.827148438 625.014648438 239.827148438 625.014648438 314.509765625 c 0,17,18
 625.014648438 388.340820312 625.014648438 388.340820312 590.704101562 451.309570312 c 128,-1,19
 556.411132812 514.2734375 556.411132812 514.2734375 496.684570312 550.549804688 c 128,-1,20
 436.9609375 586.809570312 436.9609375 586.809570312 367.044921875 586.809570312 c 0,21,22
 297.5546875 586.809570312 297.5546875 586.809570312 237.624023438 550.98046875 c 128,-1,23
 177.68359375 515.14453125 177.68359375 515.14453125 143.1640625 451.740234375 c 128,-1,24
 108.634765625 388.333984375 108.634765625 388.333984375 108.634765625 314.5 c 0,25,26
 108.634765625 239.810546875 108.634765625 239.810546875 143.374023438 176.1796875 c 128,-1,27
 178.114257812 112.549804688 178.114257812 112.549804688 237.833984375 76.509765625 c 128,-1,28
 297.559570312 40.4599609375 297.559570312 40.4599609375 367.034179688 40.4599609375 c 128,-1,29
 436.529296875 40.4599609375 436.529296875 40.4599609375 496.024414062 76.509765625 c 128,-1,15
 555.514648438 112.5546875 555.514648438 112.5546875 590.264648438 176.1796875 c 128,-1,16
233.654296875 510.16015625 m 1,30,-1
 288.154296875 510.150390625 l 1,31,-1
 369.854492188 510.150390625 l 2,32,33
 435.784179688 510.150390625 435.784179688 510.150390625 470.924804688 478.4296875 c 128,-1,34
 506.069335938 446.705078125 506.069335938 446.705078125 506.064453125 398.200195312 c 128,-1,35
 506.064453125 349.690429688 506.064453125 349.690429688 480.254882812 319.83984375 c 0,36,37
 456.827148438 292.741210938 456.827148438 292.741210938 413.034179688 283.0703125 c 1,38,-1
 517.114257812 118.950195312 l 1,39,-1
 452.57421875 118.950195312 l 1,40,-1
 351.194335938 278.790039062 l 1,41,-1
 288.154296875 278.790039062 l 1,42,-1
 288.154296875 118.959960938 l 1,43,-1
 233.654296875 118.959960938 l 1,44,-1
 233.654296875 510.16015625 l 1,30,-1
288.154296875 332.700195312 m 1,45,46
 357.94140625 332.700195312 357.94140625 332.700195312 381.5546875 332.709960938 c 0,47,48
 398.166015625 332.709960938 398.166015625 332.709960938 415.010742188 339.958007812 c 128,-1,49
 431.85546875 347.206054688 431.85546875 347.206054688 439.024414062 355.5 c 0,50,51
 451.564453125 370 451.564453125 370 451.564453125 398.219726562 c 0,52,53
 451.564453125 422.499023438 451.564453125 422.499023438 434.404296875 437.990234375 c 0,54,55
 414.803710938 455.66015625 414.803710938 455.66015625 369.854492188 455.66015625 c 2,56,-1
 288.154296875 455.66015625 l 1,57,-1
 288.154296875 332.700195312 l 1,45,46
EndSplineSet
Validated: 33
EndChar
